<svg width="208" height="348" viewBox="0 0 208 348" fill="none" xmlns="http://www.w3.org/2000/svg">
<path d="M37.4 16C41.8 16 45.4 12.4 45.4 8C45.4 3.6 41.8 0 37.4 0C33 0 29.4 3.6 29.4 8C29.4 12.4 33 16 37.4 16ZM37.4 2C40.7 2 43.4 4.7 43.4 8C43.4 11.3 40.7 14 37.4 14C34.1 14 31.4 11.3 31.4 8C31.4 4.7 34.1 2 37.4 2ZM173.6 34C173.9 34 174.1 33.8 174.1 33.5V29.6C174.1 29.3 173.9 29.1 173.6 29.1C173.3 29.1 173.1 29.3 173.1 29.6V33.5C173.1 33.8 173.3 34 173.6 34ZM173.6 45.2C173.9 45.2 174.1 45 174.1 44.7V42.3C174.1 42 173.9 41.8 173.6 41.8C173.3 41.8 173.1 42 173.1 42.3V44.7C173.1 45 173.3 45.2 173.6 45.2ZM173.6 52.9C173.9 52.9 174.1 52.7 174.1 52.4V48.3C174.1 48 173.9 47.8 173.6 47.8C173.3 47.8 173.1 48 173.1 48.3V52.4C173.1 52.6 173.3 52.9 173.6 52.9ZM173.6 66.8C173.9 66.8 174.1 66.6 174.1 66.3V63.7C174.1 63.4 173.9 63.2 173.6 63.2C173.3 63.2 173.1 63.4 173.1 63.7V66.3C173.1 66.6 173.3 66.8 173.6 66.8ZM173.6 76.5C173.3 76.5 173.1 76.7 173.1 77V81.2C173.1 81.5 173.3 81.7 173.6 81.7C173.9 81.7 174.1 81.5 174.1 81.2V77C174.1 76.8 173.9 76.5 173.6 76.5ZM167.6 73.3C167.3 73.3 167.1 73.5 167.1 73.8V76.3C167.1 76.6 167.3 76.8 167.6 76.8C167.9 76.8 168.1 76.6 168.1 76.3V73.8C168.1 73.5 167.9 73.3 167.6 73.3ZM154.6 76.5C154.3 76.5 154.1 76.7 154.1 77V78.9C154.1 79.2 154.3 79.4 154.6 79.4C154.9 79.4 155.1 79.2 155.1 78.9V77C155.1 76.8 154.9 76.5 154.6 76.5ZM161.6 73.2C161.3 73.2 161.1 73.4 161.1 73.7V76.3C161.1 76.6 161.3 76.8 161.6 76.8C161.9 76.8 162.1 76.6 162.1 76.3V73.7C162.1 73.5 161.9 73.2 161.6 73.2ZM40.6 74.9C40.3 74.9 40.1 75.1 40.1 75.4V78C40.1 78.3 40.3 78.5 40.6 78.5C40.9 78.5 41.1 78.3 41.1 78V75.4C41.1 75.1 40.9 74.9 40.6 74.9ZM29.6 78.6C29.3 78.6 29.1 78.8 29.1 79.1V81C29.1 81.3 29.3 81.5 29.6 81.5C29.9 81.5 30.1 81.3 30.1 81V79.1C30.1 78.8 29.9 78.6 29.6 78.6ZM21.6 47.9C21.3 47.9 21.1 48.1 21.1 48.4V50C21.1 50.3 21.3 50.5 21.6 50.5C21.9 50.5 22.1 50.3 22.1 50V48.4C22.1 48.1 21.9 47.9 21.6 47.9ZM21.6 58.5C21.3 58.5 21.1 58.7 21.1 59V60.6C21.1 60.9 21.3 61.1 21.6 61.1C21.9 61.1 22.1 60.9 22.1 60.6V59C22.1 58.7 21.9 58.5 21.6 58.5ZM21.6 66.8C21.3 66.8 21.1 67 21.1 67.3V70.8C21.1 71.1 21.3 71.3 21.6 71.3C21.9 71.3 22.1 71.1 22.1 70.8V67.3C22.1 67 21.9 66.8 21.6 66.8ZM21.6 74.6C21.3 74.6 21.1 74.8 21.1 75.1V78C21.1 78.3 21.3 78.5 21.6 78.5C21.9 78.5 22.1 78.3 22.1 78V75.1C22.1 74.8 21.9 74.6 21.6 74.6ZM14.6 36.1C14.3 36.1 14.1 36.3 14.1 36.6V39.6C14.1 39.9 14.3 40.1 14.6 40.1C14.9 40.1 15.1 39.9 15.1 39.6V36.6C15.1 36.3 14.9 36.1 14.6 36.1ZM14.6 23.6C14.3 23.6 14.1 23.8 14.1 24.1V27C14.1 27.3 14.3 27.5 14.6 27.5C14.9 27.5 15.1 27.3 15.1 27V24.1C15.1 23.8 14.9 23.6 14.6 23.6ZM14.6 42.6C14.3 42.6 14.1 42.8 14.1 43.1V44.3C14.1 44.6 14.3 44.8 14.6 44.8C14.9 44.8 15.1 44.6 15.1 44.3V43.1C15.1 42.8 14.9 42.6 14.6 42.6ZM14.6 51.1C14.3 51.1 14.1 51.3 14.1 51.6V57.6C14.1 57.9 14.3 58.1 14.6 58.1C14.9 58.1 15.1 57.9 15.1 57.6V51.6C15.1 51.4 14.9 51.1 14.6 51.1ZM14.6 77.6C14.3 77.6 14.1 77.8 14.1 78.1V81.3C14.1 81.6 14.3 81.8 14.6 81.8C14.9 81.8 15.1 81.6 15.1 81.3V78.1C15.1 77.8 14.9 77.6 14.6 77.6ZM200.9 143.6H198.1C194.8 143.6 192.1 146.1 192.1 149.4V320.1L198.5 343C198.6 343.4 199 343.7 199.5 343.7C200 343.7 200.3 343.4 200.5 343L207 320.1C207 320 207.1 319.9 207.1 319.8V149.5C207.1 146.1 204.2 143.6 200.9 143.6ZM200.1 312V167.1C200.1 166.8 199.9 166.6 199.6 166.6C199.3 166.6 199.1 166.8 199.1 167.1V311.8L194.1 317.8V165.6H205.1V315.4L200.1 317V312ZM194.1 161.6H205.1V164.6H194.1V161.6ZM205.1 160.6H194.1V156.6H205.1V160.6ZM198 145.6H200.8C203 145.6 205 147.2 205 149.4V155.6H194V149.4C194.1 147.2 195.8 145.6 198 145.6ZM199.5 338.8L198 333.6H200.9L199.5 338.8ZM201.2 332.6H197.7L194.1 319.7V319.4L199.1 313.4V317.7C199.1 317.9 199.1 318 199.2 318.1C199.3 318.2 199.6 318.2 199.7 318.2L205 316.4V319.7L201.2 332.6ZM184.3 111.6H179.1V104.9C179.1 104.3 179.1 103.6 178.6 103.6H161.9C161.3 103.6 161.1 104.3 161.1 104.9V185C161.1 185.6 161.3 185.6 161.9 185.6H162.1V301.1C162.1 301.7 162.7 302.6 163.2 302.6H177.2C177.8 302.6 178.1 301.7 178.1 301.1V185.6H178.6C179.2 185.6 179.1 185.5 179.1 185V168C180.1 169.1 181.5 169.6 182.8 169.6H184.3C184.9 169.6 185.1 169.3 185.1 168.8V112.5C185.1 111.9 184.8 111.6 184.3 111.6ZM163.1 105.6H177.1V183.6H177.2H163.1V105.6ZM176.1 300.6H164.1V185.6H176.1V300.6ZM183.1 167.6H182.8C181.8 167.6 181.1 167 181.1 165.9V164.2C181.1 163.2 181.8 162.4 182.8 162.4C183 162.4 183.1 162.4 183.1 162.3V167.6ZM183.1 160.5C183.1 160.4 182.7 160.4 182.5 160.4C181.1 160.4 180.1 161.1 179.1 162.2V113.7H183.1V160.5ZM175.2 302.6H165.2C164.6 302.6 164.2 303 164.2 303.6C164.2 304.2 164.6 304.6 165.2 304.6H175.2C175.8 304.6 176.2 304.2 176.2 303.6C176.2 303 175.8 302.6 175.2 302.6ZM132.5 115.6H115.7C115.6 115.6 115 116 115 116V114.9C115 113.8 114.4 112.6 113.2 112.6H108.9C107.8 112.6 107 113.8 107 114.9V116.1C107 116 106.5 115.6 106.3 115.6H19V112.1C19 110.9 18.5 109.6 17.3 109.6H11.6C10.4 109.6 9 111 9 112.1V115.6H4.29999C1.89999 115.6 0 117.9 0 120.3V327.2C0 329.6 1.89999 331.6 4.29999 331.6H10V346.4C10 346.8 10.2 347.1 10.5 347.3C10.6 347.4 10.8 347.4 10.9 347.4C11.1 347.4 11.3 347.3 11.5 347.2L14.7 345L17.9 347.2C18.2 347.4 18.4 347.4 18.7 347.3C19 347.1 19 346.8 19 346.4V331.6H106.3C106.5 331.6 107 331.4 107 331.3V332.5C107 333.7 107.8 334.6 108.9 334.6H113.2C114.3 334.6 115 333.7 115 332.5V331.4C115 331.4 115.5 331.6 115.7 331.6H132.5C139.5 331.6 145.1 325.8 145.1 318.8V128.7C145.1 121.7 139.5 115.6 132.5 115.6ZM11.1 112.2C11.1 112.1 11.7 111.7 11.7 111.7H17.4C17.5 111.7 17.1 112.2 17.1 112.2V115.7H11.1V112.2ZM17.1 344.5L15.1 343C14.8 342.8 14.5 342.8 14.1 343L12.1 344.5V331.6H17.1V344.5ZM106.4 329.6H103.1V328.1C103.1 327.8 102.9 327.6 102.6 327.6C102.3 327.6 102.1 327.8 102.1 328.1V329.6H4.39996C3.09996 329.6 2.09998 328.5 2.09998 327.2V120.3C2.09998 119 3.09996 117.6 4.39996 117.6H106.4C106.6 117.6 107.1 117.9 107.1 117.8V329.7C107.1 329.6 106.6 329.6 106.4 329.6ZM113.1 332.5C113 332.6 113.1 332.6 113.1 332.5L109.2 332.6C109.2 332.6 109.1 332.6 109.1 332.5V114.7C109.1 114.7 109.1 114.6 109.2 114.6H113C113 114.6 113.1 114.6 113.1 114.7V332.5ZM143.1 318.8C143.1 324.7 138.5 329.6 132.5 329.6H127.1V326.9C127.1 326.6 126.9 326.4 126.6 326.4C126.3 326.4 126.1 326.6 126.1 326.9V329.6H115.8C115.7 329.6 115.1 329.5 115.1 329.6V117.9C115.1 117.9 115.6 117.6 115.8 117.6H132.6C138.5 117.6 143.2 122.8 143.2 128.7V318.8H143.1Z" fill="black"/>
</svg>
