<svg width="118" height="52" viewBox="0 0 118 52" fill="none" xmlns="http://www.w3.org/2000/svg">
<path d="M50.7 25.9C50.8 25.9 50.9 26 51 26C51.4 26 51.8 25.7 51.9 25.3C52.1 24.8 51.8 24.2 51.3 24C45.6 22 40 16.6 38.9 15.5L39.9 14.5C40.7 13.7 40.9 12.6 40.5 11.6C40.1 10.5 39.1 10 37.9 10H20.6C9.20004 10 0 19.1 0 30.5C0 41.9 9.30004 51.1 20.6 51.1C31.9 51.1 41.2 41.8 41.2 30.4C41.2 25.6 39.5 21.1 36.7 17.6L37.5 16.8C38.8 18.2 44.5 23.8 50.7 25.9ZM20.6 49.1C10.3 49.1 2 40.7 2 30.5C2 20.2 10.4 11.9 20.6 11.9C30.9 11.9 39.2 20.3 39.2 30.5C39.3 40.7 30.9 49.1 20.6 49.1ZM29.4 12H37.9C38.4 12 38.6 12.3 38.6 12.4C38.6 12.5 38.8 12.9 38.4 13.2L35.4 16.3C33.8 14.5 31.7 13 29.4 12ZM97 0C85.6 0 76.4 9.30001 76.4 20.6C76.4 32 85.7 41.2 97.1 41.2C101.9 41.2 106.4 39.5 109.9 36.7L110.7 37.5C109.4 38.7 103.9 44.5 101.7 50.6C101.5 51.1 101.8 51.7 102.3 51.9C102.4 51.9 102.5 52 102.6 52C103 52 103.4 51.7 103.5 51.3C105.5 45.6 110.9 40 112 38.9L113 39.9C113.5 40.4 114.2 40.7 114.9 40.7C115.3 40.7 115.5 40.6 115.9 40.5C117 40.1 117.5 39.1 117.5 37.9V20.6C117.5 9.20001 108.3 0 97 0ZM78.4 20.6C78.4 10.3 86.8 2 97 2C107.3 2 115.6 10.4 115.6 20.6C115.6 30.9 107.2 39.2 97 39.2C86.8 39.2 78.4 30.9 78.4 20.6ZM115.5 38C115.5 38.5 115.2 38.7 115.1 38.7C115 38.7 114.6 38.9 114.3 38.5L111.2 35.5C113 33.8 114.5 31.7 115.5 29.4V38Z" fill="black"/>
</svg>
