<svg width="734" height="333" viewBox="0 0 734 333" fill="none" xmlns="http://www.w3.org/2000/svg">
<path d="M227.431 178.4C227.731 178.4 227.931 178.2 228.031 178C228.031 177.7 227.931 177.5 227.631 177.4C226.631 177.2 225.631 177.1 224.631 177L224.531 177.3L224.431 178C225.531 178.1 226.431 178.2 227.431 178.4ZM237.331 160.7H237.431C239.631 160.1 240.331 159.7 240.331 159.1C240.331 159 240.331 158.8 240.231 158.7C240.031 158.5 239.731 158.4 239.531 158.6C239.331 158.7 239.331 158.9 239.331 159C239.131 159.1 238.631 159.4 237.231 159.7C236.931 159.8 236.831 160 236.831 160.3C236.931 160.5 237.131 160.7 237.331 160.7ZM218.231 187.7L215.231 187.9C214.931 187.9 214.731 188.2 214.731 188.5C214.731 188.8 214.931 189 215.231 189L218.231 188.7C218.531 188.7 218.731 188.4 218.731 188.1C218.731 187.8 218.531 187.7 218.231 187.7ZM212.231 188.1C210.731 188.2 209.831 188.3 209.231 188.5C208.931 188.6 208.831 188.8 208.831 189.1C208.831 189.3 209.131 189.5 209.331 189.5H209.431C210.031 189.4 210.931 189.3 212.331 189.2C212.631 189.2 212.831 188.9 212.831 188.7C212.731 188.3 212.431 188.1 212.231 188.1ZM224.231 187.2L221.231 187.5C220.931 187.5 220.731 187.8 220.731 188C220.731 188.3 220.931 188.5 221.231 188.5L224.231 188.2C224.531 188.2 224.731 187.9 224.631 187.6C224.531 187.3 224.431 187.1 224.231 187.2ZM230.031 186.2C229.231 186.4 228.331 186.6 227.131 186.8C226.831 186.8 226.631 187.1 226.731 187.4C226.731 187.6 227.031 187.8 227.231 187.8H227.331C228.531 187.6 229.531 187.4 230.331 187.2C230.631 187.1 230.731 186.8 230.631 186.6C230.531 186.3 230.331 186.1 230.031 186.2ZM190.331 184.1H189.131C188.431 184.1 187.831 184.1 187.231 184.2C186.931 184.2 186.731 184.5 186.831 184.8C186.831 185.1 187.031 185.2 187.331 185.2H187.431C187.931 185.1 188.531 185.1 189.231 185.1H190.431C190.731 185.1 190.931 184.9 190.931 184.6C190.831 184.4 190.631 184.1 190.331 184.1ZM184.231 185C183.131 185.5 182.331 186.3 181.831 187.2C181.731 187.4 181.831 187.7 182.031 187.9C182.131 187.9 182.231 188 182.231 188C182.431 188 182.631 187.9 182.631 187.7C183.031 187 183.631 186.4 184.631 186C184.931 185.9 185.031 185.6 184.831 185.3C184.631 185 184.431 184.8 184.231 185ZM199.231 186.2C198.931 186.1 198.731 186.2 198.531 186.5C198.431 186.8 198.531 187 198.831 187.2C199.931 187.7 200.831 188.2 201.231 188.6C201.331 188.7 201.431 188.8 201.631 188.8C201.731 188.8 201.831 188.8 201.931 188.7C202.131 188.5 202.131 188.2 201.931 188C201.331 187.1 200.131 186.5 199.231 186.2ZM196.331 185.1C195.331 184.8 194.331 184.6 193.331 184.4C193.031 184.3 192.831 184.5 192.731 184.8C192.731 185.1 192.831 185.3 193.131 185.4C194.131 185.6 195.031 185.8 196.031 186.1H196.131C196.331 186.1 196.531 186 196.631 185.7C196.731 185.5 196.631 185.2 196.331 185.1ZM223.531 136.4C223.431 136.1 223.131 136 222.931 136.1L222.731 136.2C221.731 136.6 220.731 136.9 220.231 137.9C220.131 138.1 220.231 138.4 220.431 138.6C220.531 138.6 220.631 138.7 220.631 138.7C220.831 138.7 220.931 138.6 221.031 138.4C221.431 137.8 222.131 137.5 223.031 137.2L223.231 137.1C223.431 136.9 223.631 136.6 223.531 136.4ZM224.131 145.5C224.931 145.9 225.931 146.3 226.931 146.7H227.131C227.331 146.7 227.531 146.6 227.631 146.4C227.731 146.1 227.631 145.9 227.331 145.7C226.331 145.3 225.431 144.9 224.531 144.5C224.231 144.4 224.031 144.5 223.831 144.8C223.731 145.1 223.931 145.4 224.131 145.5ZM221.031 140.9C220.931 140.6 220.731 140.5 220.431 140.5C220.131 140.6 220.031 140.8 220.031 141.1C220.231 141.9 220.531 142.8 221.031 143.8C221.131 144 221.231 144 221.331 144.1C221.431 144.1 221.531 144.2 221.531 144.2C221.731 144.2 221.831 144.1 221.931 144C222.031 143.8 222.031 143.5 221.831 143.3C221.531 142.4 221.131 141.6 221.031 140.9ZM235.231 150.2C237.931 151.3 238.131 151.3 238.231 151.3C238.531 151.3 238.731 151.1 238.731 150.8C238.731 150.5 238.531 150.3 238.231 150.3C238.231 150.3 237.831 150.2 235.531 149.3C235.231 149.2 235.031 149.3 234.831 149.6C234.831 149.8 235.031 150.1 235.231 150.2ZM229.631 147.9C230.531 148.3 231.531 148.7 232.431 149.1H232.631C232.831 149.1 233.031 149 233.131 148.8C233.231 148.5 233.131 148.3 232.831 148.1C231.931 147.7 231.031 147.3 230.031 146.9C229.731 146.8 229.531 146.9 229.331 147.2C229.331 147.5 229.431 147.8 229.631 147.9ZM248.831 149.6C248.931 149.6 249.031 149.6 249.031 149.5C249.931 149 250.831 148.6 251.731 148.3C252.031 148.2 252.131 147.9 252.031 147.7C251.931 147.5 251.631 147.3 251.431 147.4C250.431 147.8 249.531 148.2 248.631 148.7C248.431 148.8 248.331 149.1 248.431 149.4C248.431 149.5 248.631 149.6 248.831 149.6ZM243.931 153C244.031 153 244.131 153 244.231 152.9C244.931 152.3 245.631 151.6 246.531 151.1C246.731 150.9 246.831 150.6 246.631 150.4C246.431 150.2 246.131 150.1 245.931 150.3C245.031 150.9 244.231 151.6 243.531 152.2C243.331 152.4 243.331 152.7 243.531 152.9C243.631 153 243.831 153 243.931 153ZM254.431 147.4H254.531C255.531 147.1 256.431 146.9 257.431 146.8C257.731 146.8 257.931 146.5 257.831 146.2C257.831 145.9 257.531 145.7 257.231 145.8C256.231 145.9 255.231 146.2 254.231 146.4C253.931 146.5 253.831 146.7 253.831 147C253.931 147.2 254.131 147.4 254.431 147.4ZM239.631 186C239.431 185.8 239.131 185.8 238.931 186C238.731 186.2 238.731 186.5 238.931 186.7C239.631 187.5 240.431 188.2 241.131 188.8C241.231 188.9 241.331 188.9 241.431 188.9C241.531 188.9 241.731 188.8 241.831 188.7C242.031 188.5 241.931 188.2 241.731 188C241.031 187.4 240.331 186.7 239.631 186ZM244.231 189.5C244.031 189.4 243.731 189.5 243.531 189.7C243.431 189.9 243.531 190.2 243.731 190.4C244.531 190.8 245.231 191.1 245.931 191.4L246.431 191.6H246.631C246.831 191.6 247.031 191.5 247.131 191.3C247.231 191 247.131 190.8 246.831 190.6L246.331 190.4C245.731 190.1 244.931 189.8 244.231 189.5ZM254.531 223.6C254.531 223.8 254.831 224 255.031 224H255.131C255.431 224 255.631 223.7 255.531 223.4C255.431 222.5 255.331 221.5 255.331 220.5C255.331 220.2 255.131 220 254.831 220C254.531 220 254.331 220.2 254.331 220.5C254.331 221.7 254.431 222.7 254.531 223.6ZM255.131 208.6C255.131 209.5 255.031 210.4 254.931 211.6C254.931 211.9 255.131 212.1 255.431 212.1C255.731 212.1 255.931 211.9 255.931 211.6C256.031 210.4 256.131 209.5 256.131 208.6C256.131 208.3 255.931 208.1 255.631 208.1C255.431 208.1 255.131 208.3 255.131 208.6ZM256.231 226.3C256.131 226 255.831 225.9 255.631 226C255.331 226.1 255.231 226.4 255.331 226.6C255.631 227.6 256.131 228.5 256.631 229.4C256.731 229.6 256.931 229.6 257.031 229.6C257.131 229.6 257.231 229.6 257.331 229.5C257.531 229.4 257.631 229.1 257.531 228.8C256.931 228.1 256.531 227.2 256.231 226.3ZM254.431 217.5C254.431 217.8 254.631 218 254.931 218C255.231 218 255.431 217.8 255.431 217.6L255.731 214.6C255.731 214.3 255.531 214.1 255.331 214.1C255.031 214.1 254.831 214.3 254.831 214.5C254.531 215.5 254.431 216.5 254.431 217.5ZM260.631 234.1C260.731 234.2 260.831 234.2 260.931 234.2C261.031 234.2 261.231 234.1 261.331 234C261.531 233.8 261.431 233.5 261.231 233.3C260.431 232.7 259.731 232 259.131 231.3C258.931 231.1 258.631 231.1 258.431 231.3C258.231 231.5 258.231 231.8 258.431 232C259.031 232.7 259.831 233.4 260.631 234.1ZM255.131 202.2C254.831 202.3 254.731 202.5 254.731 202.8C254.931 203.7 255.031 204.6 255.131 205.7C255.131 206 255.331 206.1 255.631 206.1C255.931 206.1 256.131 205.9 256.131 205.6C256.031 204.5 255.931 203.5 255.731 202.6C255.631 202.2 255.331 202.1 255.131 202.2ZM249.731 192C249.531 191.8 249.231 191.9 249.031 192.1C248.831 192.3 248.931 192.6 249.131 192.8C249.931 193.3 250.631 193.9 251.231 194.7C251.331 194.8 251.431 194.9 251.631 194.9C251.731 194.9 251.831 194.9 251.931 194.8C252.131 194.6 252.231 194.3 252.031 194.1C251.331 193.3 250.531 192.6 249.731 192ZM253.831 199.9C253.931 200.1 254.131 200.2 254.331 200.2H254.531C254.831 200.1 254.931 199.8 254.831 199.6C254.431 198.6 254.031 197.6 253.631 196.8C253.531 196.6 253.231 196.5 252.931 196.6C252.731 196.7 252.631 197 252.731 197.3C253.131 198 253.531 198.9 253.831 199.9ZM250.431 306.4C250.131 305.4 249.831 304.5 249.631 303.6C249.531 303.3 249.331 303.2 249.031 303.2C248.731 303.3 248.631 303.5 248.631 303.8C248.831 304.7 249.031 305.7 249.431 306.8C249.531 307 249.731 307.1 249.931 307.1H250.131C250.331 306.9 250.531 306.6 250.431 306.4ZM248.731 326C248.031 326.7 247.331 327.4 246.631 328C246.431 328.2 246.431 328.5 246.531 328.7C246.631 328.8 246.731 328.9 246.931 328.9C247.031 328.9 247.131 328.9 247.231 328.8C247.931 328.2 248.731 327.5 249.431 326.7C249.631 326.5 249.631 326.2 249.431 326C249.231 325.7 248.931 325.7 248.731 326ZM247.131 295.4H247.331C247.631 295.3 247.731 295 247.631 294.8C247.331 294 247.231 293.3 247.231 292.4V292C247.231 291.7 247.031 291.5 246.731 291.5C246.431 291.5 246.231 291.7 246.231 292V292.5C246.231 293.6 246.431 294.4 246.731 295.2C246.731 295.3 246.931 295.4 247.131 295.4ZM247.931 297.3C247.631 297.4 247.531 297.7 247.631 297.9C247.931 298.8 248.131 299.7 248.231 300.8C248.231 301 248.531 301.2 248.731 301.2H248.831C249.131 301.2 249.331 300.9 249.231 300.6C249.031 299.5 248.831 298.6 248.631 297.6C248.531 297.3 248.231 297.2 247.931 297.3ZM244.331 329.9C243.431 330.7 242.731 331.4 242.231 332.2C242.031 332.4 242.131 332.7 242.331 332.9C242.431 333 242.531 333 242.631 333C242.831 333 242.931 332.9 243.031 332.8C243.531 332.1 244.131 331.5 245.031 330.7C245.231 330.5 245.231 330.2 245.031 330C244.831 329.8 244.531 329.8 244.331 329.9ZM247.131 289.5H247.231C247.431 289.5 247.631 289.4 247.731 289.1C247.831 288.8 247.931 288.6 248.031 288.3C248.031 288.3 248.131 288 249.131 286.7C249.331 286.5 249.231 286.2 249.031 286C248.831 285.8 248.531 285.9 248.331 286.1C247.131 287.5 247.031 287.9 247.031 288L246.731 288.9C246.731 289.1 246.831 289.4 247.131 289.5ZM251.931 312.7H252.031C252.331 312.6 252.431 312.3 252.331 312.1C252.031 311.1 251.731 310.2 251.331 309.2C251.231 308.9 250.931 308.8 250.731 308.9C250.431 309 250.331 309.3 250.431 309.5C250.731 310.4 251.131 311.4 251.431 312.3C251.431 312.5 251.631 312.7 251.931 312.7ZM256.531 277.2C255.831 277.9 255.131 278.6 254.431 279.4C254.231 279.6 254.231 279.9 254.431 280.1C254.531 280.2 254.631 280.2 254.731 280.2C254.831 280.2 255.031 280.1 255.131 280C255.831 279.3 256.531 278.5 257.231 277.9C257.431 277.7 257.431 277.4 257.231 277.2C257.031 277 256.731 277 256.531 277.2ZM252.031 320.6C251.731 320.5 251.531 320.7 251.431 320.9C251.331 321.4 251.131 322 250.931 322.5C250.831 322.9 250.631 323.2 250.431 323.6C250.331 323.8 250.431 324.1 250.631 324.3C250.731 324.3 250.831 324.4 250.831 324.4C251.031 324.4 251.231 324.3 251.231 324.1C251.431 323.7 251.631 323.3 251.731 322.9C251.931 322.3 252.131 321.7 252.231 321.2C252.431 320.9 252.331 320.7 252.031 320.6ZM250.331 284.5C250.431 284.6 250.531 284.6 250.631 284.6C250.731 284.6 250.931 284.5 251.031 284.4C251.631 283.7 252.331 282.9 253.031 282.2C253.231 282 253.231 281.7 253.031 281.5C252.831 281.3 252.531 281.3 252.331 281.5C251.631 282.3 250.931 283 250.331 283.8C250.131 284 250.131 284.3 250.331 284.5ZM252.431 314.6C252.131 314.6 251.931 314.9 252.031 315.1C252.031 315.6 252.131 316 252.131 316.5C252.131 317 252.131 317.5 252.031 318C252.031 318.3 252.231 318.5 252.431 318.5H252.531C252.831 318.5 253.031 318.3 253.031 318.1C253.131 317.6 253.131 317 253.131 316.5C253.131 316 253.131 315.5 253.031 315C252.931 314.8 252.731 314.6 252.431 314.6ZM75.3309 148C75.131 148.3 74.9309 148.9 75.3309 149.7C75.4309 149.9 75.631 150 75.8309 150H76.0309C76.3309 149.9 76.4309 149.6 76.3309 149.3C76.131 148.8 76.2309 148.6 76.3309 148.5C76.5309 148.1 77.231 148 77.431 147.9C77.631 147.9 77.8309 147.7 77.8309 147.5C77.8309 147.3 77.7309 147.1 77.631 147C76.931 146.6 76.531 144.5 76.431 143.1C76.431 142.8 76.131 142.6 75.931 142.6C75.631 142.6 75.431 142.9 75.431 143.1C75.431 143.6 75.6309 145.8 76.5309 147.1C76.0309 147.4 75.631 147.6 75.3309 148ZM75.8309 158.5H76.0309C76.3309 158.4 76.4309 158.1 76.3309 157.8C76.131 157.3 76.2309 157.1 76.3309 157C76.5309 156.6 77.231 156.5 77.431 156.4C77.631 156.4 77.8309 156.2 77.8309 156C77.8309 155.8 77.7309 155.6 77.631 155.5C76.931 155.1 76.531 153 76.431 151.6C76.431 151.3 76.131 151.1 75.931 151.1C75.631 151.1 75.431 151.4 75.431 151.6C75.431 152.1 75.6309 154.3 76.5309 155.6C76.1309 155.8 75.8309 156 75.5309 156.4C75.3309 156.7 75.1309 157.3 75.5309 158.1C75.4309 158.4 75.631 158.5 75.8309 158.5ZM81.7309 155.3C81.5309 155.6 81.3309 156.2 81.7309 157C81.8309 157.2 82.0309 157.3 82.2309 157.3H82.431C82.731 157.2 82.8309 156.9 82.7309 156.6C82.5309 156.1 82.6309 155.9 82.7309 155.8C82.9309 155.4 83.631 155.3 83.8309 155.2C84.0309 155.2 84.2309 155 84.2309 154.8C84.2309 154.6 84.1309 154.4 84.0309 154.3C83.3309 153.9 82.9309 151.8 82.8309 150.4C82.8309 150.1 82.5309 149.9 82.3309 149.9C82.0309 149.9 81.8309 150.2 81.8309 150.4C81.8309 150.9 82.031 153.1 82.931 154.4C82.431 154.7 82.0309 154.9 81.7309 155.3ZM82.2309 165.8H82.431C82.731 165.7 82.8309 165.4 82.7309 165.1C82.5309 164.6 82.6309 164.4 82.7309 164.3C82.9309 163.9 83.631 163.8 83.8309 163.7C84.0309 163.7 84.2309 163.5 84.2309 163.3C84.2309 163.1 84.1309 162.9 84.0309 162.8C83.3309 162.4 82.9309 160.3 82.8309 158.9C82.8309 158.6 82.5309 158.4 82.3309 158.4C82.0309 158.4 81.8309 158.7 81.8309 158.9C81.8309 159.4 82.031 161.6 82.931 162.9C82.531 163.1 82.231 163.3 81.931 163.7C81.731 164 81.531 164.6 81.931 165.4C81.831 165.7 82.0309 165.8 82.2309 165.8ZM155.831 150.4C155.631 150.7 155.431 151.3 155.831 152.1C155.931 152.3 156.131 152.4 156.331 152.4H156.531C156.831 152.3 156.931 152 156.831 151.7C156.631 151.2 156.731 151 156.831 150.9C157.031 150.5 157.731 150.4 157.931 150.3C158.131 150.3 158.331 150.1 158.331 149.9C158.331 149.7 158.231 149.5 158.131 149.4C157.431 149 157.031 146.9 156.931 145.5C156.931 145.2 156.631 145 156.431 145C156.131 145 155.931 145.3 155.931 145.5C155.931 146 156.131 148.2 157.031 149.5C156.531 149.7 156.131 150 155.831 150.4ZM156.331 160.9H156.531C156.831 160.8 156.931 160.5 156.831 160.2C156.631 159.7 156.731 159.5 156.831 159.4C157.031 159 157.731 158.9 157.931 158.8C158.131 158.8 158.331 158.6 158.331 158.4C158.331 158.2 158.231 158 158.131 157.9C157.431 157.5 157.031 155.4 156.931 154C156.931 153.7 156.631 153.5 156.431 153.5C156.131 153.5 155.931 153.8 155.931 154C155.931 154.5 156.131 156.7 157.031 158C156.631 158.2 156.331 158.4 156.031 158.8C155.831 159.1 155.631 159.7 156.031 160.5C155.931 160.7 156.131 160.9 156.331 160.9ZM162.231 166C162.031 166.3 161.831 166.9 162.231 167.7C162.331 167.9 162.531 168 162.731 168H162.931C163.231 167.9 163.331 167.6 163.231 167.3C163.031 166.8 163.131 166.6 163.231 166.5C163.431 166.1 164.131 166 164.331 165.9C164.531 165.9 164.731 165.7 164.731 165.5C164.731 165.3 164.631 165.1 164.531 165C163.831 164.6 163.431 162.5 163.331 161.1C163.331 160.8 163.031 160.6 162.831 160.6C162.531 160.6 162.331 160.9 162.331 161.1C162.331 161.6 162.531 163.8 163.431 165.1C162.931 165.3 162.531 165.6 162.231 166ZM162.731 176.5H162.931C163.231 176.4 163.331 176.1 163.231 175.8C163.031 175.3 163.131 175.1 163.231 175C163.431 174.6 164.131 174.5 164.331 174.4C164.531 174.4 164.731 174.2 164.731 174C164.731 173.8 164.631 173.6 164.531 173.5C163.831 173.1 163.431 171 163.331 169.6C163.331 169.3 163.031 169.1 162.831 169.1C162.531 169.1 162.331 169.4 162.331 169.6C162.331 170.1 162.531 172.3 163.431 173.6C163.031 173.8 162.731 174 162.431 174.4C162.231 174.7 162.031 175.3 162.431 176.1C162.331 176.4 162.531 176.5 162.731 176.5ZM6.43095 171.3C6.23095 171.6 6.03095 172.2 6.43095 173C6.53095 173.2 6.73095 173.3 6.93095 173.3H7.13095C7.43095 173.2 7.53095 172.9 7.43095 172.6C7.23095 172.1 7.33095 171.9 7.43095 171.8C7.63095 171.4 8.33094 171.3 8.53094 171.2C8.73094 171.2 8.93095 171 8.93095 170.8C8.93095 170.6 8.83094 170.4 8.73094 170.3C8.03094 169.9 7.63094 167.8 7.53094 166.4C7.53094 166.1 7.23094 165.9 7.03094 165.9C6.73094 165.9 6.53094 166.2 6.53094 166.4C6.53094 166.9 6.73095 169.1 7.63095 170.4C7.03095 170.7 6.63095 170.9 6.43095 171.3ZM6.83095 181.8H7.03094C7.33094 181.7 7.43095 181.4 7.33095 181.1C7.13095 180.6 7.23095 180.4 7.33095 180.3C7.53095 179.9 8.23095 179.8 8.43095 179.7C8.63095 179.7 8.83095 179.5 8.83095 179.3C8.83095 179.1 8.73095 178.9 8.63095 178.8C7.93095 178.4 7.53095 176.3 7.43095 174.9C7.43095 174.6 7.13095 174.4 6.93095 174.4C6.63095 174.4 6.43095 174.7 6.43095 174.9C6.43095 175.4 6.63094 177.6 7.53094 178.9C7.13094 179.1 6.83094 179.3 6.53094 179.7C6.33094 180 6.13094 180.6 6.53094 181.4C6.43094 181.7 6.63095 181.8 6.83095 181.8ZM0.23094 156.5C0.0309401 156.8 -0.16906 157.4 0.23094 158.2C0.33094 158.4 0.53094 158.5 0.73094 158.5H0.930952C1.23095 158.4 1.33094 158.1 1.23094 157.8C1.03094 157.3 1.13094 157.1 1.23094 157C1.43094 156.6 2.13095 156.5 2.33095 156.4C2.53095 156.4 2.73094 156.2 2.73094 156C2.73094 155.8 2.63094 155.6 2.53094 155.5C1.83094 155.1 1.43095 153 1.33095 151.6C1.33095 151.3 1.03095 151.1 0.830946 151.1C0.530946 151.1 0.330946 151.4 0.330946 151.6C0.330946 152.1 0.530952 154.3 1.43095 155.6C0.830952 155.8 0.43094 156.1 0.23094 156.5ZM0.630949 167H0.830946C1.13095 166.9 1.23095 166.6 1.13095 166.3C0.930949 165.8 1.03095 165.6 1.13095 165.5C1.33095 165.1 2.03094 165 2.23094 164.9C2.43094 164.9 2.63095 164.7 2.63095 164.5C2.63095 164.3 2.53095 164.1 2.43095 164C1.73095 163.6 1.33094 161.5 1.23094 160.1C1.23094 159.8 0.93094 159.6 0.73094 159.6C0.43094 159.6 0.23094 159.9 0.23094 160.1C0.23094 160.6 0.430946 162.8 1.33095 164.1C0.930946 164.3 0.630946 164.5 0.330946 164.9C0.130946 165.2 -0.0690538 165.8 0.330946 166.6C0.230946 166.8 0.430949 167 0.630949 167ZM733.631 137.5V7.1C733.631 3.2 730.931 0 727.131 0H629.331C628.731 0 628.631 0.499998 628.631 1.1V143.6C628.631 144.2 628.831 145.1 629.331 145.1H727.131C730.931 145 733.631 141.4 733.631 137.5ZM630.631 2H727.131C729.931 2 731.631 4.3 731.631 7.1V137.5C731.631 140.3 729.831 143 727.131 143H630.631V2Z" fill="black"/>
</svg>
