<svg width="92" height="88" viewBox="0 0 92 88" fill="none" xmlns="http://www.w3.org/2000/svg">
<path d="M30.6 25.9C13.7 25.9 0 39.6 0 56.5C0 73.4 13.7 87.1 30.6 87.1C47.5 87.1 61.2 73.4 61.2 56.5C61.2 39.6 47.4 25.9 30.6 25.9ZM30.6 85.1C14.8 85.1 2 72.3 2 56.5C2 40.7 14.8 27.9 30.6 27.9C46.4 27.9 59.2 40.7 59.2 56.5C59.2 72.3 46.3 85.1 30.6 85.1ZM81.9 19.9C87.4 19.9 91.8 15.4 91.8 9.9C91.8 4.4 87.3 0 81.9 0C76.5 0 71.9 4.5 71.9 9.9C71.9 15.3 76.4 19.9 81.9 19.9ZM81.9 2C86.3 2 89.8 5.6 89.8 9.9C89.8 14.3 86.2 17.9 81.9 17.9C77.5 17.9 73.9 14.3 73.9 9.9C73.9 5.6 77.5 2 81.9 2Z" fill="black"/>
</svg>
