<svg width="224" height="202" viewBox="0 0 224 202" fill="none" xmlns="http://www.w3.org/2000/svg">
<path d="M222.1 7.3C222.1 10.8 219.3 13.6 215.8 13.6C214.4 13.6 213 13.1 211.9 12.3C211.7 12.1 211.4 12.2 211.2 12.4C211 12.6 211.1 12.9 211.3 13.1C212.6 14.1 214.1 14.6 215.8 14.6C219.8 14.6 223.1 11.3 223.1 7.3C223.1 7 222.9 6.8 222.6 6.8C222.3 6.8 222.1 7 222.1 7.3ZM215.8 1C217.4 1 218.8 1.60001 220 2.60001C220.2 2.80001 220.5 2.80001 220.7 2.60001C220.9 2.40001 220.9 2.09999 220.7 1.89999C219.4 0.699994 217.6 0 215.8 0C211.8 0 208.5 3.3 208.5 7.3C208.5 7.6 208.7 7.8 209 7.8C209.3 7.8 209.5 7.6 209.5 7.3C209.5 3.8 212.3 1 215.8 1ZM181.3 151.7H152.4C152.6 151.7 152.2 151 152.2 150.8V132.9C152.2 132.7 152.4 132.5 152.3 132.3L142.9 118H143.2V100.8C143.2 100.6 143 100.4 142.9 100.3L134.7 87.6C134.7 87.5 134.2 87.5 134.2 87.4V71.7C134.2 71.5 134.4 71.3 134.3 71.1L128.8 59.7H139.7C140.3 59.7 141.2 59.5 141.2 58.9V54.1C141.2 53.5 140.3 52.6 139.7 52.6H56.3C55.7001 52.6 55.2 53.5 55.2 54.1V58.9C55.2 59.5 55.8 59.7 56.3 59.7H67.2L65.3 63.7H33.1V36.8C33.1 36.2 32.7 35.8 32.1 35.8C31.5 35.8 31.1 36.2 31.1 36.8V63.7H20.1C19.8 63.7 19.6 63.9 19.6 64.2C19.6 64.5 19.8 64.7 20.1 64.7H31.1V150.8C31.1 151.1 31.5 151.7 31.6 151.7H14.5C6.6 151.7 0 157.8 0 165.7V183C0 190.9 6.6 197.6 14.5 197.6H70.9C70.7 197.6 70.6 197.6 70.6 197.9C70.6 200.1 72.4 201.6 74.7 201.6H120.5C122.7 201.6 124.6 200.1 124.6 197.9C124.6 197.6 124.5 197.6 124.3 197.6H181.1C189 197.6 194.9 190.9 194.9 183V165.7C195.2 157.9 189.3 151.7 181.3 151.7ZM149.9 131.7H125.7C125.4 131.7 125.2 131.9 125.2 132.2C125.2 132.5 125.4 132.7 125.7 132.7H150.6L150.2 133.2V150.8C150.2 151.1 150.8 151.7 151 151.7H45.1C45.3 151.7 45.2 151 45.2 150.8V133.2L45.6 132.5C45.7 132.7 45.9 132.7 46.1 132.7H55.5C55.8 132.7 56 132.5 56 132.2C56 131.9 55.8 131.7 55.5 131.7H46.1V131.9L54.5 119.7H141.5L149.9 131.7ZM140.1 99.7H104.4C104.1 99.7 103.9 99.9 103.9 100.2C103.9 100.5 104.1 100.7 104.4 100.7H140.8L141.3 101V117.7H55.3V101L55.5 100.7C55.6 100.8 55.7001 100.7 55.8 100.7H75.4C75.7 100.7 75.9 100.5 75.9 100.2C75.9 99.9 75.7 99.7 75.4 99.7H56L62.7 88.7H133.4L140.1 99.7ZM57.2 54.7H139.2V57.7H57.2V54.7ZM126.6 59.7L132.1 70.7H123.4C123.1 70.7 122.9 70.9 122.9 71.2C122.9 71.5 123.1 71.7 123.4 71.7H132.5L132.2 71.9V86.7H63.2V71.9L63.4 71.7H102.4C102.7 71.7 102.9 71.5 102.9 71.2C102.9 70.9 102.7 70.7 102.4 70.7H64.1L69.6 59.7H126.6ZM33.2 150.8V64.7H64.9L61.5 71.2C61.4 71.3 61.3 71.5 61.3 71.7V87.4C61.3 87.5 61.3 87.5 61.2 87.6L53.3 100.3C53.2001 100.5 53.2 100.6 53.2 100.8V118L43.5 132.3C43.4 132.5 43.3 132.7 43.3 132.9V150.8C43.3 151.1 43.5 151.7 43.7 151.7H33.3C33.4 151.7 33.2 151 33.2 150.8ZM122.8 198C122.8 199.1 121.9 199.7 120.7 199.7H74.9C73.8 199.7 72.8 199.1 72.8 198C72.8 197.7 72.7 197.7 72.5 197.7H122.9C122.9 197.7 122.8 197.8 122.8 198ZM193.2 183.4C193.2 190.2 187.7 195.7 180.9 195.7H14.5C7.7 195.7 2.20001 190.2 2.20001 183.4V166.1C2.20001 159.3 7.7 153.8 14.5 153.8H180.8C187.6 153.8 193.1 159.3 193.1 166.1V183.4H193.2Z" fill="black"/>
</svg>
