<svg width="181" height="117" viewBox="0 0 181 117" fill="none" xmlns="http://www.w3.org/2000/svg">
<path d="M132.5 0.900002H154.5C155.3 0.900002 156.3 1.1 156.3 1.9V13.5C156.3 14.3 155.4 14.8 154.5 14.8H55.1C54.8 14.8 54.6 15 54.6 15.3C54.6 15.6 54.8 15.8 55.1 15.8H154.5C155.9 15.8 157.3 14.8 157.3 13.5V2C157.3 0.6 155.9 0 154.5 0H132.5C132.2 0 132 0.2 132 0.5C132 0.8 132.2 0.900002 132.5 0.900002ZM43.3 14.9H0.5C0.2 14.9 0 15.1 0 15.4C0 15.7 0.2 15.9 0.5 15.9H43.3C43.6 15.9 43.8 15.7 43.8 15.4C43.8 15.1 43.6 14.9 43.3 14.9ZM174.6 117C175.8 117 176.8 116 176.8 114.8C176.8 113.6 175.8 112.6 174.6 112.6C173.9 112.6 173.3 112.9 172.9 113.4C172.7 113.6 172.7 113.9 173 114.1C173.2 114.3 173.5 114.3 173.7 114C173.9 113.7 174.3 113.6 174.7 113.6C175.4 113.6 175.9 114.2 175.9 114.8C175.9 115.4 175.3 116 174.7 116C174.3 116 173.8 115.8 173.6 115.4C173.5 115.2 173.1 115.1 172.9 115.2C172.7 115.3 172.6 115.6 172.7 115.9C173.1 116.6 173.8 117 174.6 117ZM179.4 113.3C179.2 113.6 178.8 113.6 178.6 113.4C178.5 113.3 178.4 113.2 178.4 113C178.4 112.8 178.4 112.7 178.5 112.6C178.7 112.3 179.1 112.3 179.3 112.5C179.5 112.7 179.8 112.6 180 112.4C180.2 112.2 180.1 111.9 179.9 111.7C179.2 111.2 178.2 111.4 177.7 112.1C177.2 112.8 177.4 113.8 178.1 114.3C178.4 114.5 178.7 114.6 179 114.6C179.5 114.6 180 114.4 180.3 113.9C180.5 113.7 180.4 113.4 180.2 113.2C179.9 113.1 179.5 113.1 179.4 113.3ZM178.8 109.5C179.7 109.5 180.4 108.8 180.4 107.9C180.4 107 179.7 106.3 178.8 106.3C178.5 106.3 178.3 106.5 178.3 106.8C178.3 107.1 178.5 107.3 178.8 107.3C179.1 107.3 179.4 107.6 179.4 107.9C179.4 108.2 179.1 108.5 178.8 108.5C178.5 108.5 178.2 108.2 178.2 107.9C178.2 107.6 178 107.4 177.7 107.4C177.4 107.4 177.2 107.6 177.2 107.9C177.2 108.7 177.9 109.5 178.8 109.5ZM114.7 74.6C114.5 74.9 114.1 74.9 113.9 74.7C113.8 74.6 113.7 74.5 113.7 74.3C113.7 74.1 113.7 74 113.8 73.9C113.9 73.8 114 73.7 114.2 73.7C114.4 73.7 114.5 73.7 114.6 73.8C114.8 74 115.1 73.9 115.3 73.7C115.5 73.5 115.4 73.2 115.2 73C114.9 72.8 114.4 72.7 114 72.7C113.6 72.8 113.2 73 113 73.3C112.8 73.6 112.7 74.1 112.7 74.5C112.8 74.9 113 75.3 113.3 75.5C113.6 75.7 113.9 75.8 114.2 75.8C114.7 75.8 115.2 75.6 115.5 75.1C115.7 74.9 115.6 74.6 115.4 74.4C115.1 74.3 114.8 74.3 114.7 74.6Z" fill="black"/>
</svg>
