<svg width="134" height="193" viewBox="0 0 134 193" fill="none" xmlns="http://www.w3.org/2000/svg">
<path d="M127.908 1H131.008C131.308 1 131.508 0.8 131.508 0.5C131.508 0.2 131.308 0 131.008 0H127.908C127.608 0 127.408 0.2 127.408 0.5C127.408 0.8 127.608 1 127.908 1ZM133.008 13H127.908C127.608 13 127.408 13.2 127.408 13.5C127.408 13.8 127.608 14 127.908 14H133.008C133.308 14 133.508 13.8 133.508 13.5C133.508 13.2 133.308 13 133.008 13ZM127.908 26H131.008C131.308 26 131.508 25.8 131.508 25.5C131.508 25.2 131.308 25 131.008 25H127.908C127.608 25 127.408 25.2 127.408 25.5C127.408 25.8 127.608 26 127.908 26ZM133.008 50H127.908C127.608 50 127.408 50.2 127.408 50.5C127.408 50.8 127.608 51 127.908 51H133.008C133.308 51 133.508 50.8 133.508 50.5C133.508 50.2 133.308 50 133.008 50ZM127.908 39H131.008C131.308 39 131.508 38.8 131.508 38.5C131.508 38.2 131.308 38 131.008 38H127.908C127.608 38 127.408 38.2 127.408 38.5C127.408 38.8 127.608 39 127.908 39ZM127.908 64H131.008C131.308 64 131.508 63.8 131.508 63.5C131.508 63.2 131.308 63 131.008 63H127.908C127.608 63 127.408 63.2 127.408 63.5C127.408 63.8 127.608 64 127.908 64ZM127.908 76H131.008C131.308 76 131.508 75.8 131.508 75.5C131.508 75.2 131.308 75 131.008 75H127.908C127.608 75 127.408 75.2 127.408 75.5C127.408 75.8 127.608 76 127.908 76ZM133.008 88H127.908C127.608 88 127.408 88.2 127.408 88.5C127.408 88.8 127.608 89 127.908 89H133.008C133.308 89 133.508 88.8 133.508 88.5C133.508 88.2 133.308 88 133.008 88ZM127.908 101H131.008C131.308 101 131.508 100.8 131.508 100.5C131.508 100.2 131.308 100 131.008 100H127.908C127.608 100 127.408 100.2 127.408 100.5C127.408 100.8 127.608 101 127.908 101ZM127.908 114H131.008C131.308 114 131.508 113.8 131.508 113.5C131.508 113.2 131.308 113 131.008 113H127.908C127.608 113 127.408 113.2 127.408 113.5C127.408 113.8 127.608 114 127.908 114ZM133.008 125H127.908C127.608 125 127.408 125.2 127.408 125.5C127.408 125.8 127.608 126 127.908 126H133.008C133.308 126 133.508 125.8 133.508 125.5C133.508 125.2 133.308 125 133.008 125ZM127.908 139H131.008C131.308 139 131.508 138.8 131.508 138.5C131.508 138.2 131.308 138 131.008 138H127.908C127.608 138 127.408 138.2 127.408 138.5C127.408 138.8 127.608 139 127.908 139ZM127.908 151H131.008C131.308 151 131.508 150.8 131.508 150.5C131.508 150.2 131.308 150 131.008 150H127.908C127.608 150 127.408 150.2 127.408 150.5C127.408 150.8 127.608 151 127.908 151ZM133.008 163H127.908C127.608 163 127.408 163.2 127.408 163.5C127.408 163.8 127.608 164 127.908 164H133.008C133.308 164 133.508 163.8 133.508 163.5C133.508 163.2 133.308 163 133.008 163ZM131.008 175H127.908C127.608 175 127.408 175.2 127.408 175.5C127.408 175.8 127.608 176 127.908 176H131.008C131.308 176 131.508 175.8 131.508 175.5C131.508 175.2 131.308 175 131.008 175ZM131.008 188H127.908C127.608 188 127.408 188.2 127.408 188.5C127.408 188.8 127.608 189 127.908 189H131.008C131.308 189 131.508 188.8 131.508 188.5C131.508 188.2 131.308 188 131.008 188ZM104.008 172.8C103.808 172.1 103.508 171.4 103.408 170.8C103.208 169.3 103.608 167.8 104.108 166.4L104.208 166.1C104.508 165.4 104.808 164.6 104.908 163.8C105.308 161.1 103.808 158.2 101.308 157.1C96.5081 154.9 94.0081 158.7 91.5081 162.4C89.6081 165.2 87.7081 168.1 84.7081 168.4C82.1081 168.6 79.6081 168.6 77.0081 168.2C75.8081 168 74.8081 167.8 73.9081 167.3C72.3081 166.2 71.6081 164.2 71.0081 162.2C70.9081 161.8 70.8081 161.4 70.6081 161.1C70.1081 159.7 69.5081 158.4 68.8081 157.1C68.3081 156.2 67.4081 155 66.1081 154.7C65.2081 154.5 64.3081 154.9 63.5081 155.3C63.2081 155.4 62.9081 155.6 62.6081 155.7C60.3081 156.4 59.6081 155.5 58.6081 154.2C58.2081 153.7 57.7081 153.1 57.2081 152.6C55.1081 150.8 52.7081 150.6 50.4081 150.6C46.9081 150.6 40.6081 151.4 38.4081 156.3C37.7081 157.9 37.5081 159.6 37.4081 161.2L37.1081 163.9C36.6081 167.7 36.1081 171.6 38.0081 175C38.3081 175.5 38.6081 176 38.9081 176.4C39.4081 177.1 39.8081 177.7 40.1081 178.5C40.4081 179.2 40.5081 180 40.7081 180.9C40.9081 182 41.1081 183.1 41.7081 184.1C43.3081 186.9 48.4081 188.4 52.2081 188.1C55.1081 187.9 57.0081 186.7 57.7081 184.7C58.0081 183.8 58.1081 182.8 58.1081 181.8C58.2081 180 58.3081 178.9 59.3081 178.5C60.5081 177.9 63.1081 178.4 68.2081 183.7C70.2081 185.8 73.0081 187.2 75.9081 187.5C76.1081 187.5 76.4081 187.5 76.6081 187.6C77.2081 187.7 77.7081 187.7 78.2081 187.8C79.3081 188.1 79.9081 188.9 80.6081 189.7C81.2081 190.4 81.8081 191.1 82.7081 191.6C83.8081 192.1 85.1081 192.3 86.3081 192.3C88.8081 192.3 91.4081 191.6 92.1081 191.4C93.0081 191.1 93.9081 190.7 94.8081 190.3C96.5081 189.4 97.5081 188.2 97.6081 186.9C97.6081 186.4 97.5081 185.8 97.4081 185.3C97.4081 185.1 97.3081 184.9 97.3081 184.7C96.8081 181.4 98.4081 180.8 100.508 180C102.008 179.5 103.608 178.9 104.408 177.1C105.008 175.6 104.508 174.2 104.008 172.8ZM103.508 176.7C102.908 178 101.608 178.5 100.208 179C98.1081 179.8 95.7081 180.7 96.4081 184.8C96.4081 185 96.5081 185.2 96.5081 185.4C96.6081 185.8 96.7081 186.3 96.7081 186.7C96.6081 187.9 95.4081 188.8 94.5081 189.3C93.7081 189.7 92.9081 190.1 92.0081 190.3C89.4081 191.1 85.5081 191.7 83.3081 190.6C82.6081 190.2 82.1081 189.6 81.5081 189C80.8081 188.1 80.0081 187.2 78.6081 186.8C78.0081 186.6 77.4081 186.6 76.8081 186.5C76.6081 186.5 76.3081 186.5 76.1081 186.4C73.5081 186.1 70.9081 184.8 69.0081 182.9C67.5081 181.4 63.5081 177.2 60.3081 177.2C59.8081 177.2 59.4081 177.3 59.0081 177.5C57.4081 178.2 57.3081 180 57.2081 181.7C57.2081 182.6 57.1081 183.5 56.9081 184.3C56.1081 186.4 53.6081 186.9 52.2081 187C48.4081 187.3 43.8081 185.6 42.6081 183.5C42.1081 182.6 41.9081 181.6 41.7081 180.6C41.5081 179.7 41.4081 178.9 41.0081 178C40.7081 177.2 40.2081 176.5 39.7081 175.8C39.4081 175.3 39.1081 174.9 38.9081 174.4C37.2081 171.2 37.7081 167.5 38.1081 163.9C38.2081 163 38.3081 162 38.4081 161.1C38.5081 159.6 38.7081 158 39.3081 156.6C41.4081 152.1 47.8081 151.5 50.4081 151.5C52.5081 151.5 54.7081 151.7 56.5081 153.3C57.0081 153.7 57.4081 154.2 57.8081 154.7C58.9081 156.1 60.0081 157.5 62.9081 156.6C63.2081 156.5 63.6081 156.3 63.9081 156.2C64.6081 155.9 65.3081 155.6 65.9081 155.7C66.8081 155.9 67.5081 156.8 67.9081 157.6C68.6081 158.8 69.2081 160.1 69.6081 161.4C69.7081 161.8 69.8081 162.1 70.0081 162.5C70.7081 164.7 71.4081 166.9 73.3081 168.1C74.3081 168.8 75.6081 169 76.8081 169.2C79.4081 169.6 82.1081 169.6 84.7081 169.4C88.2081 169.1 90.2081 166 92.2081 162.9C94.6081 159.3 96.6081 156.1 100.708 158C102.808 159 104.108 161.4 103.708 163.7C103.608 164.4 103.308 165.1 103.108 165.8L103.008 166.1C102.408 167.6 101.908 169.3 102.208 171C102.308 171.7 102.608 172.5 102.908 173.2C103.508 174.4 104.008 175.6 103.508 176.7ZM28.3081 165.1C27.0081 164.6 25.9081 164.6 24.8081 165.2C22.4081 166.5 21.1081 170.1 20.3081 173.2C19.8081 175.3 19.0081 178.1 20.0081 180.6C20.6081 182 21.9081 183.2 23.4081 183.6C23.7081 183.7 24.1081 183.7 24.4081 183.7C25.2081 183.7 25.9081 183.4 26.5081 183C26.6081 182.9 26.6081 182.8 26.7081 182.7C26.9081 181.9 27.1081 181 27.3081 180.2C28.1081 176.6 28.9081 173.2 30.3081 169.8C30.5081 169.2 30.9081 168.5 30.8081 167.7C30.6081 166.6 29.7081 165.6 28.3081 165.1ZM29.4081 169.5C27.9081 173 27.2081 176.4 26.4081 180C26.2081 180.8 26.1081 181.5 25.9081 182.3C25.3081 182.7 24.6081 182.8 23.8081 182.6C22.6081 182.3 21.5081 181.3 21.1081 180.2C20.3081 178.2 20.8081 176 21.4081 173.5C21.8081 171.8 23.0081 167.4 25.4081 166.1C25.8081 165.9 26.3081 165.8 26.7081 165.8C27.1081 165.8 27.6081 165.9 28.1081 166.1C28.5081 166.3 29.8081 166.8 29.9081 167.9C29.8081 168.4 29.6081 168.9 29.4081 169.5ZM12.1081 160.2C11.2081 160.1 10.5081 159.9 10.0081 159.7C9.30809 159.4 8.90809 158.9 8.40809 158.4C7.70809 157.5 6.8081 156.5 4.6081 156.8C3.0081 157 1.4081 157.9 0.608099 159.2C0.00809932 160.1 -0.191895 161.2 0.208105 162.2C0.708105 163.7 1.80809 164.5 2.90809 165.4C3.60809 165.9 4.20811 166.4 4.70811 167C5.30811 167.8 5.80808 168.6 6.30808 169.5C7.00808 170.7 7.70809 172 8.90809 173.1C9.40809 173.6 10.2081 174.2 11.1081 174.2H11.4081C13.0081 173.9 13.5081 171.9 13.7081 171.2C14.0081 170.1 14.4081 169 14.9081 168C15.8081 165.9 16.7081 163.9 15.8081 162.3C15.3081 161.2 14.1081 160.6 12.1081 160.2ZM14.0081 167.5C13.5081 168.6 13.0081 169.8 12.7081 170.9C12.4081 172.3 11.9081 173 11.2081 173.1C10.7081 173.2 10.2081 172.9 9.50809 172.3C8.40809 171.3 7.8081 170.1 7.1081 168.9C6.6081 168 6.10809 167.1 5.40809 166.2C4.90809 165.5 4.10809 165 3.50809 164.5C2.50809 163.7 1.5081 163 1.1081 161.8C0.908099 161.1 1.00809 160.4 1.40809 159.7C2.10809 158.7 3.4081 157.9 4.6081 157.8H5.1081C6.4081 157.8 6.90809 158.4 7.50809 159.1C8.00809 159.7 8.50809 160.3 9.40809 160.7C10.0081 161 10.8081 161.1 11.7081 161.2C13.3081 161.5 14.3081 162 14.7081 162.7C15.6081 163.9 14.8081 165.7 14.0081 167.5Z" fill="black"/>
</svg>
