<svg width="356" height="116" viewBox="0 0 356 116" fill="none" xmlns="http://www.w3.org/2000/svg">
<path d="M334.6 113.2C323.5 114 312.7 110.6 304.1 103.6C303.7 103.3 303 103.3 302.7 103.7C302.4 104.1 302.4 104.8 302.8 105.1C310.9 111.7 321 115.2 331.4 115.2C332.5 115.2 333.6 115.2 334.7 115.1C335.3 115.1 335.7 114.6 335.6 114C335.6 113.6 335.1 113.2 334.6 113.2ZM348.9 102.3C349 102.3 349.1 102.3 349.1 102.2C351.4 101 353.6 99.5 355.5 97.8C355.7 97.6 355.7 97.3 355.6 97.1C355.4 96.9 355.1 96.9 354.9 97C353 98.7 350.9 100.1 348.6 101.3C348.4 101.4 348.3 101.7 348.4 102C348.5 102.2 348.7 102.3 348.9 102.3ZM301.9 47.7C305.6 42.7 310.7 38.7 316.4 36.2C316.7 36.1 316.8 35.8 316.7 35.5C316.6 35.2 316.3 35.1 316 35.2C310.1 37.8 305 41.9 301.1 47.1C301.1 47.1 301.1 47.2 301 47.2C300.8 47.1 300.7 47.1 300.5 47.1C300.2 47.1 300 47.3 300 47.6C300 47.9 300.2 48.1 300.5 48.1C300.8 48.1 301.1 48.4 301.1 48.7C301.1 49 300.8 49.3 300.5 49.3C300.2 49.3 299.9 49 299.9 48.7C299.9 48.4 299.7 48.2 299.4 48.2C299.1 48.2 298.9 48.4 298.9 48.7C298.9 49.6 299.6 50.3 300.5 50.3C301.4 50.3 302.1 49.6 302.1 48.7C302.1 48.3 302 48 301.8 47.8L301.9 47.7ZM39.8 79.3C46.4 79.3 53 77.6 58.7 74.5C58.9 74.4 59 74.1 58.9 73.8C58.8 73.6 58.5 73.5 58.2 73.6C52.6 76.7 46.2 78.3 39.7 78.3C18.3 78.3 1 60.9 1 39.6C1 18.2 18.4 0.900002 39.7 0.900002C61 0.900002 78.4 18.3 78.4 39.6C78.4 51.6 73 62.7 63.6 70.1C63.4 70.3 63.3 70.6 63.5 70.8C63.7 71 64 71.1 64.2 70.9C73.8 63.3 79.4 51.9 79.4 39.7C79.4 17.8 61.6 0 39.7 0C17.8 0 0 17.8 0 39.7C0 61.5 17.8 79.3 39.8 79.3Z" fill="black"/>
</svg>
