<svg width="896" height="191" viewBox="0 0 896 191" fill="none" xmlns="http://www.w3.org/2000/svg">
<path d="M449.9 44.7C450.9 44.7 451.8 43.9 451.8 42.8C451.8 41.7 451 40.9 449.9 40.9C448.8 40.9 448 41.7 448 42.8C448 43.9 448.8 44.7 449.9 44.7ZM449.9 42C450.4 42 450.8 42.4 450.8 42.9C450.8 43.4 450.4 43.8 449.9 43.8C449.4 43.8 449 43.4 449 42.9C449 42.4 449.4 42 449.9 42ZM377.6 48.8C378.9 48.8 380 47.7 380 46.4C380 45.1 378.9 44 377.6 44C376.3 44 375.2 45.1 375.2 46.4C375.2 47.8 376.3 48.8 377.6 48.8ZM377.6 45.1C378.4 45.1 379 45.7 379 46.5C379 47.3 378.4 47.9 377.6 47.9C376.8 47.9 376.2 47.3 376.2 46.5C376.2 45.7 376.8 45.1 377.6 45.1ZM98.2 60.1C98.4 62.3 100.3 63.9 102.5 63.9H109.4C111.8 63.9 113.5 62.1 113.5 59.7C123.5 60.6 134.8 63.7 146.9 66.9C161.6 70.8 176.7 74.9 189 74.9C196.3 74.9 202.6 73.5 207.4 69.8C213.5 65.1 216.6 57.2 216.6 45.7C216.6 34.2 213.6 26.3 207.5 21.6C194.7 11.8 170.4 18.2 147 24.5C134.9 27.7 123.6 30.8 113.6 31.7V31.6C113.6 29.2 111.9 26.9 109.5 26.9H102.6C100.4 26.9 98.5 28.8 98.3 30.9C98 30.9 97.8 30.9 97.5 30.8H97.4C77.6 25.8 47.8 3.6 44.5 0.3C44.1 -0.1 43.5 -0.1 43.1 0.3L36.3 7.3C36.1 7.5 36 7.8 36 8.1C36 8.4 36.2 8.7 36.4 8.8C43.7 14.1 52.6 18.5 61.1 22C40.5 16.6 20.4 12.7 9.1 21.3C3 26 0 33.9 0 45.4C0 56.9 3 64.8 9.1 69.5C13.9 73.2 20.2 74.6 27.5 74.6C39.8 74.6 54.8 70.5 69.5 66.6C79.7 64.1 89.4 61.4 98.2 60.1ZM64.7 56C51.2 59.4 40.5 62 35.2 57.9C32.4 55.7 31.1 51.7 31.1 45.7C31.1 39.7 32.4 35.6 35.2 33.5C37.2 32 39.8 31.4 43.1 31.4C48.8 31.4 56.2 33.3 64.8 35.4C68.2 36.2 71.8 37.1 75.5 37.9C82.8 39.7 90.5 41.3 98.5 42.1V49.3C90.5 50.1 82.8 51.7 75.5 53.5C71.8 54.3 68.1 55.2 64.7 56ZM34.6 32.7C31.6 35.1 30.1 39.3 30.1 45.7C30.1 52.1 31.6 56.3 34.6 58.7C36.7 60.4 39.6 61 43.1 61C44.2 61 45.5 60.9 46.7 60.8C38.2 62.5 31.3 62.8 27.2 59.7C24 57.2 22.4 52.7 22.4 45.7C22.4 38.7 24 34.2 27.2 31.7C29.5 30 32.5 29.3 36.2 29.3C39.3 29.3 42.8 29.8 46.6 30.5C41.5 30 37.4 30.4 34.6 32.7ZM98.5 40C86.5 38.7 74.2 35.5 63.6 32.6C46.8 28 33.5 24.4 26.1 30C22.3 32.9 20.5 38 20.5 45.6C20.5 53.2 22.3 58.3 26.1 61.2C28.8 63.2 32.2 64.1 36.3 64.1C43.5 64.1 52.9 61.6 63.6 58.7C74.2 55.8 86.5 52.6 98.5 51.3V53.8C84.5 55.4 70.7 60.1 58.6 64.3C41.7 70.1 27.1 75 19 69.2C14 65.6 11.5 57.9 11.5 45.7C11.5 33.5 13.9 25.8 19 22.2C21.6 20.4 24.7 19.6 28.5 19.6C36.6 19.6 47.2 23.2 58.7 27.1C70.8 31.2 84.6 35.9 98.6 37.6V40H98.5ZM151.7 35.3C165.2 31.9 175.9 29.3 181.2 33.4C184 35.6 185.3 39.6 185.3 45.6C185.3 51.6 184 55.7 181.2 57.8C175.8 62 165.2 59.3 151.7 55.9C148.7 55.1 145.3 54.3 141.9 53.5C132.9 51.2 123.5 49.3 113.5 48.7V42.3C123.5 41.7 132.9 39.8 141.9 37.5C145.3 36.9 148.7 36.1 151.7 35.3ZM173.4 61C176.9 61 179.7 60.3 181.9 58.7C184.9 56.3 186.4 52.1 186.4 45.7C186.4 39.3 184.9 35.1 181.9 32.7C179.1 30.5 175 30 170 30.5C178.4 28.8 185.2 28.6 189.3 31.7C192.5 34.2 194.1 38.7 194.1 45.7C194.1 52.7 192.5 57.2 189.3 59.7C185.2 62.8 178.3 62.6 169.9 60.9C171.1 60.9 172.3 61 173.4 61ZM113.5 50.9C127.5 51.7 141 55.4 153 58.7C163.7 61.6 173 64.1 180.2 64.1C184.3 64.1 187.8 63.3 190.5 61.2C194.3 58.3 196.1 53.2 196.1 45.6C196.1 38 194.3 32.9 190.5 30C183.2 24.4 169.8 28 153 32.6C141 35.9 127.5 39.6 113.5 40.4V37.9C129.5 36.9 144.4 31.6 158 27C174.9 21.2 189.5 16.3 197.6 22.1C202.6 25.7 205.1 33.4 205.1 45.6C205.1 57.8 202.7 65.5 197.6 69.1C189.5 74.9 174.8 69.9 158 64.2C144.5 59.6 129.5 54.4 113.5 53.3V50.9ZM147.4 26.4C170.3 20.3 194.1 13.9 206.1 23.1C211.7 27.4 214.5 34.8 214.5 45.6C214.5 56.4 211.8 63.8 206.2 68.1C194.2 77.3 170.4 71 147.4 64.8C135.2 61.5 123.5 58.4 113.5 57.5V54.3C129.5 55.3 144.2 60.5 157.7 65.1C169.3 69.1 179.9 72.7 188.1 72.7C192 72.7 195.4 71.9 198.2 69.9C203.5 66.1 206.1 58.1 206.1 45.5C206.1 32.9 203.5 25 198.2 21.1C189.7 15 174.8 20.1 157.7 25.9C144.2 30.5 129.6 35.7 113.6 36.7V33.7C123.5 32.8 135.2 29.7 147.4 26.4ZM100.5 31.6C100.5 30.3 101.2 28.9 102.5 28.9H109.4C110.7 28.9 111.5 30.3 111.5 31.6V59.7C111.5 61 110.7 61.9 109.4 61.9H102.5C101.2 61.9 100.5 61 100.5 59.7V31.6ZM43.8 2.6C48.4 6.5 66.5 20 83.4 27.9C74.3 25.2 52.9 18.2 38.4 8.1L43.8 2.6ZM10.3 68.2C4.7 63.9 1.89999 56.5 1.89999 45.7C1.89999 34.9 4.6 27.5 10.3 23.2C22.4 14 46.1 20.3 69 26.5C74.8 28.1 80.8 29.7 86.4 30.9C86.6 30.9 86.7 31 86.8 31H87C91.8 32.3 95.5 33 98.5 33.4V36.5C84.5 34.9 70.9 30.2 58.9 26.1C41.8 20.3 26.9 15.2 18.4 21.3C13.1 25.1 10.4 33.1 10.4 45.7C10.4 58.3 13 66.2 18.3 70.1C21 72.1 24.4 72.9 28.3 72.9C36.5 72.9 47.2 69.3 58.8 65.3C70.9 61.2 84.4 56.5 98.4 54.9V58.2C89.4 59.5 79.4 62.2 69 65C46.2 71.1 22.3 77.4 10.3 68.2ZM884.3 168C878.1 168 873 173.1 873 179.3C873 185.5 878.1 190.6 884.3 190.6C890.5 190.6 895.6 185.5 895.6 179.3C895.6 173.1 890.5 168 884.3 168ZM884.3 188.6C879.2 188.6 875 184.4 875 179.3C875 174.2 879.2 170 884.3 170C889.4 170 893.6 174.2 893.6 179.3C893.6 184.4 889.4 188.6 884.3 188.6Z" fill="black"/>
</svg>
