<svg width="490" height="313" viewBox="0 0 490 313" fill="none" xmlns="http://www.w3.org/2000/svg">
<path d="M44.3 309.3L40.4 308.7C40.1 308.7 39.9 308.8 39.8 309.1C39.8 309.4 39.9 309.6 40.2 309.7L44.1 310.3C44.1 310.3 44.2 310.3 44.2 310.4C44.2 310.5 44.1 310.5 44.1 310.5L36.7 311.7C36.4 311.7 36.2 312 36.3 312.3C36.3 312.5 36.6 312.7 36.8 312.7H36.9L44.3 311.5C44.9 311.4 45.3 310.9 45.3 310.4C45.3 309.9 44.8 309.3 44.3 309.3ZM9.79999 312L1.19998 310.6C1.19998 310.6 1.10001 310.6 1.10001 310.5C1.10001 310.4 1.19998 310.4 1.19998 310.4L7 309.4C7.3 309.4 7.49999 309.1 7.39999 308.8C7.39999 308.5 7.09999 308.3 6.79999 308.4L1 309.4C0.4 309.5 0 310 0 310.5C0 311 0.4 311.5 1 311.6L9.60001 313H9.69998C9.89998 313 10.2 312.8 10.2 312.6C10.3 312.3 10.1 312 9.79999 312ZM313.4 28.9H484.5C487.1 28.9 489.2 26.9 489.2 24.3V5.1C489.2 2.5 487.1 0 484.5 0H313.8V0.3C313.7 0.3 313.6 0.4 313.5 0.5C313.5 0.5 313.5 0.599999 313.4 0.599999L299.7 7.7C299.5 7.8 299.4 7.9 299.3 8.1L294.2 9.2C292.5 9.4 291.2 11.3 291.2 13.4V16.9C291.2 19.1 292.5 20.9 294.1 21.1L299.8 22.3L313.4 28.9ZM487.2 5.1V24.4C487.2 25.9 486 27 484.5 27H319.8L322 26.3C322.4 26.2 322.6 25.8 322.7 25.4C322.7 25 322.5 24.6 322.2 24.4L315.7 21.1L325.2 13.9C325.5 13.6 325.7 13.2 325.5 12.8C325.3 12.4 325 12.1 324.6 12.1L318.4 12L319.6 9.4C319.8 8.9 319.6 8.6 319.2 8.4L318.3 8.1H446.7C447 8.1 447.2 7.9 447.2 7.6C447.2 7.3 447 7.1 446.7 7.1H317.1C317 7.1 317.1 6.9 317 7L315.2 5.6V2.2H484.5C486 1.9 487.2 3.6 487.2 5.1ZM301.2 9.1L313.2 3V5.8C313.2 6.1 313.2 6.5 313.5 6.7L317.5 9.2L316 12.4C315.9 12.7 315.9 13.1 316 13.3C316.2 13.6 316.5 13.8 316.8 13.8L321.7 13.9L313.2 20.4C312.9 20.6 312.8 20.9 312.8 21.3C312.8 21.6 313 21.9 313.3 22.1L319.1 25L313.9 26.8L301.2 20.7V9.1ZM293.2 16.8V13.3C293.2 12 293.9 11.1 294.5 11L299.2 10.1V20.1L294.5 19.1C293.9 19 293.2 18.1 293.2 16.8Z" fill="black"/>
</svg>
