<svg width="32" height="31" viewBox="0 0 32 31" fill="none" xmlns="http://www.w3.org/2000/svg">
<path d="M5.90002 0C4.10002 0 2.20002 0.200002 0.400024 0.600002C0.100024 0.700002 0 0.900001 0 1.2C0 1.5 0.299976 1.6 0.599976 1.6C2.29998 1.2 4.10002 1 5.90002 1C12.7 1 18.8 3.8 23.3 8.2L5.29999 30.2C5.09999 30.4 5.20002 30.7 5.40002 30.9C5.50002 31 5.60001 31 5.70001 31C5.80001 31 5.99998 30.9 6.09998 30.8L24.1 8.9C28.1 13.3 30.6 19.1 30.6 25.6C30.6 25.9 30.8 26.1 31.1 26.1C31.4 26.1 31.6 25.9 31.6 25.6C31.4 11.5 20 0 5.90002 0Z" fill="black"/>
</svg>
