<svg width="50" height="49" viewBox="0 0 50 49" fill="none" xmlns="http://www.w3.org/2000/svg">
<path d="M7.30005 6.23923C7.40005 6.23923 7.60001 6.13923 7.70001 6.03923C9.60001 3.93923 11.8 2.23923 14.2 0.939232C14.4 0.839232 14.5 0.539231 14.4 0.239231C14.3 0.0392311 14 -0.0607697 13.7 0.0392304C11.2 1.43923 8.90002 3.13923 6.90002 5.33923C6.70002 5.53923 6.70002 5.83923 6.90002 6.03923C7.00002 6.23923 7.20005 6.23923 7.30005 6.23923ZM35.3 45.3392C32.3 46.6392 29.1 47.2392 25.7 47.2392C21 47.2392 16.6 45.9392 12.9 43.6392L20.8 34.0392C21 33.8392 20.9 33.5392 20.7 33.3392C20.5 33.1392 20.2 33.2392 20 33.4392L12.1 43.1392C10.5 42.1392 9.10005 40.8392 7.80005 39.5392L24.7 18.9392C24.9 18.7392 24.8 18.4392 24.6 18.2392C24.4 18.0392 24.1 18.1392 23.9 18.3392L7.10004 38.8392C3.40004 34.5392 1.10004 28.9392 1.10004 22.8392C1.10004 18.2392 2.40005 13.7392 4.80005 9.83923C4.90005 9.63923 4.90004 9.33923 4.60004 9.13923C4.40004 9.03923 4.10002 9.03923 3.90002 9.33923C1.40002 13.4392 0 18.1392 0 22.9392C0 37.0392 11.5 48.5392 25.6 48.5392C29.1 48.5392 32.4 47.8392 35.6 46.5392C35.9 46.4392 36 46.1392 35.9 45.8392C35.9 45.3392 35.6 45.2392 35.3 45.3392ZM49 32.1392C48.7 32.0392 48.5 32.1392 48.3 32.4392C46.9 35.7392 44.6 38.8392 41.9 41.2392C41.7 41.4392 41.7 41.7392 41.9 41.9392C42 42.0392 42.1 42.1392 42.3 42.1392C42.4 42.1392 42.5 42.1392 42.6 42.0392C45.5 39.5392 47.8 36.3392 49.3 32.9392C49.4 32.5392 49.2 32.2392 49 32.1392Z" fill="black"/>
</svg>
