<svg width="86" height="80" viewBox="0 0 86 80" fill="none" xmlns="http://www.w3.org/2000/svg">
<path d="M73.4 44.3L74.3 43.4C75.1001 42.6 75.3 41.6 74.9 40.5C74.5 39.4 73.5 38.9 72.3 38.9H55C43.6 38.9 34.4 48 34.4 59.4C34.4 70.8 43.7 80 55 80C66.3 80 75.6 70.7 75.6 59.3C75.6 54.5 73.9 50 71.1 46.5L71.9 45.7C73.3 46.8 84.9 56.2 82.8 70C82.7001 70.5 83.1 71.1 83.6 71.1H83.8C84.3 71.1 84.7001 70.7 84.8 70.2C87.1001 55.8 75.7 46.1 73.4 44.3ZM55 77.9C44.7 77.9 36.4 69.5 36.4 59.3C36.4 49.1 44.8 40.7 55 40.7C65.2 40.7 73.6 49.1 73.6 59.3C73.6 69.5 65.3 77.9 55 77.9ZM63.8 40.9H72.3C72.8 40.9 73 41.1 73 41.2C73 41.3 73.2001 41.6 72.8 42L69.8 45.1C68.1001 43.4 66.1001 41.9 63.8 40.9ZM11.3 0C5.10005 0 0 5.1 0 11.3C0 17.5 5.10005 22.6 11.3 22.6C17.5 22.6 22.6 17.5 22.6 11.3C22.6 5.1 17.6 0 11.3 0ZM11.3 20.6C6.20005 20.6 2 16.4 2 11.3C2 6.2 6.20005 2 11.3 2C16.4 2 20.6 6.2 20.6 11.3C20.6 16.4 16.5 20.6 11.3 20.6Z" fill="black"/>
</svg>
