<svg width="139" height="24" viewBox="0 0 139 24" fill="none" xmlns="http://www.w3.org/2000/svg">
<path d="M138.2 11.8C138.5 11.8 138.7 11.6 138.7 11.3V0.5C138.7 0.2 138.5 0 138.2 0C137.9 0 137.7 0.2 137.7 0.5V11.4C137.7 11.6 137.9 11.8 138.2 11.8ZM135.2 9.7C135.5 9.7 135.7 9.5 135.7 9.2V2.7C135.7 2.4 135.5 2.2 135.2 2.2C134.9 2.2 134.7 2.4 134.7 2.7V9.2C134.7 9.4 134.9 9.7 135.2 9.7ZM77.5 7.7H83.4C83.7 7.7 83.9 7.5 83.9 7.2C83.9 6.9 83.7 6.7 83.4 6.7H77.5C77.2 6.7 77 6.9 77 7.2C77 7.5 77.2 7.7 77.5 7.7ZM69.4 12.7H71.8C72.1 12.7 72.3 12.5 72.3 12.2C72.3 11.9 72.1 11.7 71.8 11.7H69.4C69.1 11.7 68.9 11.9 68.9 12.2C68.9 12.5 69.2 12.7 69.4 12.7ZM82.5 17.2C82.5 17.5 82.7 17.7 83 17.7H85.8C86.1 17.7 86.3 17.5 86.3 17.2C86.3 16.9 86.1 16.7 85.8 16.7H83C82.8 16.7 82.5 17 82.5 17.2ZM68.7 23.7H72.7C73 23.7 73.2 23.5 73.2 23.2C73.2 22.9 73 22.7 72.7 22.7H68.7C68.4 22.7 68.2 22.9 68.2 23.2C68.2 23.5 68.4 23.7 68.7 23.7ZM75.6 23.7H77.1C77.4 23.7 77.6 23.5 77.6 23.2C77.6 22.9 77.4 22.7 77.1 22.7H75.6C75.3 22.7 75.1 22.9 75.1 23.2C75.1 23.5 75.4 23.7 75.6 23.7ZM40.7 7.7H46.6C46.9 7.7 47.1 7.5 47.1 7.2C47.1 6.9 46.9 6.7 46.6 6.7H40.7C40.4 6.7 40.2 6.9 40.2 7.2C40.2 7.5 40.4 7.7 40.7 7.7ZM34.3 7.7H36.4C36.7 7.7 36.9 7.5 36.9 7.2C36.9 6.9 36.7 6.7 36.4 6.7H34.3C34 6.7 33.8 6.9 33.8 7.2C33.8 7.5 34.1 7.7 34.3 7.7ZM23 7.7H28.3C28.6 7.7 28.8 7.5 28.8 7.2C28.8 6.9 28.6 6.7 28.3 6.7H23C22.7 6.7 22.5 6.9 22.5 7.2C22.5 7.5 22.7 7.7 23 7.7ZM43.4 17.2C43.4 17.5 43.6 17.7 43.9 17.7H51.6C51.9 17.7 52.1 17.5 52.1 17.2C52.1 16.9 51.9 16.7 51.6 16.7H43.9C43.6 16.7 43.4 17 43.4 17.2ZM38.6 17.7H40.6C40.9 17.7 41.1 17.5 41.1 17.2C41.1 16.9 40.9 16.7 40.6 16.7H38.6C38.3 16.7 38.1 16.9 38.1 17.2C38.1 17.5 38.4 17.7 38.6 17.7ZM26.8 23.2C26.8 23.5 27 23.7 27.3 23.7H32.8C33.1 23.7 33.3 23.5 33.3 23.2C33.3 22.9 33.1 22.7 32.8 22.7H27.3C27 22.7 26.8 23 26.8 23.2ZM10.2 7.7H15.3C15.6 7.7 15.8 7.5 15.8 7.2C15.8 6.9 15.6 6.7 15.3 6.7H10.2C9.9 6.7 9.7 6.9 9.7 7.2C9.7 7.5 10 7.7 10.2 7.7ZM19.2 11.7H23.3C23.6 11.7 23.8 11.5 23.8 11.2C23.8 10.9 23.6 10.7 23.3 10.7H19.2C18.9 10.7 18.7 10.9 18.7 11.2C18.7 11.5 19 11.7 19.2 11.7ZM9.7 12.7H12.1C12.4 12.7 12.6 12.5 12.6 12.2C12.6 11.9 12.4 11.7 12.1 11.7H9.7C9.4 11.7 9.2 11.9 9.2 12.2C9.2 12.5 9.4 12.7 9.7 12.7ZM0.5 11.7H4.6C4.9 11.7 5.1 11.5 5.1 11.2C5.1 10.9 4.9 10.7 4.6 10.7H0.5C0.2 10.7 0 10.9 0 11.2C0 11.5 0.2 11.7 0.5 11.7ZM14.5 23.2C14.5 23.5 14.7 23.7 15 23.7H16.5C16.8 23.7 17 23.5 17 23.2C17 22.9 16.8 22.7 16.5 22.7H15C14.7 22.7 14.5 23 14.5 23.2Z" fill="black"/>
</svg>
