<svg width="354" height="69" viewBox="0 0 354 69" fill="none" xmlns="http://www.w3.org/2000/svg">
<path d="M30 47.3V47C30 46.9 29.8 46.7 29.8 46.7H35V48.2C35 49.5 36 50.7 37.3 50.7H44C45.3 50.7 46 49.5 46 48.2V46.8H103V48.1C103 49.4 104.2 50.6 105.5 50.6H112.2C113.5 50.6 115 49.4 115 48.1V46.6H143.5C144 49.6 146.6 52.6 149.9 52.6H153.2C158.5 59.6 166.7 64.7 176.1 65.8C176.5 67.5 178 68.8 179.8 68.8C181.6 68.8 183.2 67.4 183.5 65.7C193 64.6 201.2 59.7 206.5 52.3C206.7 52.4 206.8 52.6 207 52.6H210.4C213.2 52.6 215.6 50.6 216.5 47.6H258.2L337.4 47.7C339.6 47.7 341.8 47.1 343.7 45.9C348.2 42.9 353.7 38.4 353.7 33.3C353.7 28.2 348.3 23.6 343.7 20.7C341.8 19.5 339.7 18.9 337.4 18.9L216.9 19C216.4 15.9 213.8 13.6 210.5 13.6H206.7C206.6 13.6 206.5 13.5 206.4 13.5C200.4 5.3 190.7 0 179.7 0C168.8 0 159.1 5.6 153.1 13.6H149.8C147 13.6 144.6 15.6 143.7 17.6H114.9V16.5C114.9 15.2 113.5 13.7 112.1 13.7H105.4C104.1 13.7 102.9 15.1 102.9 16.5V17.8H45.9V16.5C45.9 15.2 45.3 13.7 43.9 13.7H37.2C35.9 13.7 34.9 15.1 34.9 16.5V17.7H29.9V17.5C29.9 14.2 27.1 11.8 23.8 11.8H6.4C3.1 11.8 0 14.2 0 17.5V47.3C0 50.6 3.1 52.8 6.4 52.8H23.9C27.2 52.7 30 50.5 30 47.3ZM179.8 67.7C178.6 67.7 177.5 66.9 177.1 65.8C178 65.9 178.9 65.9 179.8 65.9C180.7 65.9 181.6 65.9 182.5 65.8C182.1 66.9 181.1 67.7 179.8 67.7ZM342.6 22.5C346 24.7 351.7 29.1 351.7 33.5C351.7 36.3 349.4 38.9 346.9 41.1C346.8 41 346.7 40.7 346.5 40.7H339.4C339.1 40.7 338.9 40.9 338.9 41.2C338.9 41.5 339.1 41.7 339.4 41.7H346C344.8 42.7 343.7 43.6 342.7 44.3C341.2 45.3 339.4 45.9 337.5 45.9L217.1 46V25.7H219.8C220.1 25.7 220.3 25.5 220.3 25.2C220.3 24.9 220.1 24.7 219.8 24.7H217.1V21H337.5C339.2 21 341 21.5 342.6 22.5ZM210.6 15.7C213.1 15.7 215 17.5 215 19.9V45.8C215 48.3 213 50.6 210.6 50.6H207.8C211 45.6 212.8 39.5 212.8 33.1C212.8 26.7 211 20.6 207.8 15.6H210.6V15.7ZM179.8 2C196.9 2 210.8 15.9 210.8 33C210.8 50.1 196.9 64 179.8 64C162.7 64 148.8 50.1 148.8 33C148.8 15.9 162.7 2 179.8 2ZM149.8 15.7H151.8C148.6 20.7 146.8 26.8 146.8 33.2C146.8 39.6 148.6 45.7 151.8 50.7H149.8C147.3 50.7 144.9 48.3 144.9 45.9V20C145 17.5 147.4 15.7 149.8 15.7ZM143 19.7V39.7H140.7C140.4 39.7 140.2 39.9 140.2 40.2C140.2 40.5 140.4 40.7 140.7 40.7H143V44.7H115V19.7H143ZM113 48.3C113 48.5 112.8 48.7 112.6 48.7H105.5C105.3 48.7 105.1 48.5 105.1 48.3V16.2C105.1 16 105.3 15.8 105.5 15.8H112.6C112.8 15.8 113 16 113 16.2V48.3ZM103 19.9V27.8H98.9C98.6 27.8 98.4 28 98.4 28.3C98.4 28.6 98.6 28.8 98.9 28.8H103V44.9H46V19.9H103ZM45 48.3C45 48.5 44.8 48.7 44.6 48.7H37.5C37.3 48.7 37.1 48.5 37.1 48.3V16.2C37.1 16 37.3 15.8 37.5 15.8H44.6C44.8 15.8 45 16 45 16.2V48.3ZM35 44.7H24.2C22.3 44.7 21 43.3 21 41.5V35.9C21 35.8 20.8 35.8 20.8 35.8H28V38.4C28 39 28.4 39.4 29 39.4C29.6 39.4 30 39 30 38.4V26.4C30 25.8 29.6 25.4 29 25.4C28.4 25.4 28 25.8 28 26.4V28.7H21V23.2C21 21.4 22.4 19.7 24.2 19.7H35V44.7ZM19 23.2V28.7H6V17.9C6 17.2 6.5 16.8 7.2 16.8H23.1C23.8 16.8 24.4 16.8 24.4 17.8H24.2C21.2 17.7 19 20.3 19 23.2ZM5.6 30.7H28V33.7H5.6C5.2 33.7 5 33.1 5 32.7V31.9C5 31.6 5.2 30.7 5.6 30.7ZM6 35.7H18.9C18.9 35.7 19 35.7 19 35.8V41.5C19 44.5 21.3 46.7 24.2 46.7H24.4C24.4 47.7 23.8 47.7 23.1 47.7H7.2C6.5 47.7 6 47.6 6 46.8V35.7ZM2 47.3V17.5C2 15.3 4.2 13.8 6.4 13.8H23.9C26.1 13.8 28 15.4 28 17.5V17.8H25.4C25.4 16.8 24.3 15.8 23.1 15.8H7.2C5.9 15.8 5 16.6 5 17.9V29.4C4 29.7 3 30.8 3 32V32.8C3 34.1 4 35.1 5 35.4V46.9C5 48.2 5.9 48.8 7.2 48.8H23.1C24.4 48.8 25.4 47.8 25.4 46.8H27.8C27.8 46.8 27.9 47 27.9 47.1V47.4C27.9 49.6 26 50.9 23.8 50.9H6.4C4.2 50.7 2 49.4 2 47.3Z" fill="black"/>
</svg>
