<svg width="43" height="43" viewBox="0 0 43 43" fill="none" xmlns="http://www.w3.org/2000/svg">
<path d="M21.1 1.9C26 1.9 30.7 3.8 34.3 7.2C34.7 7.6 35.3 7.6 35.7 7.2C36.1 6.8 36.1 6.2 35.7 5.8C31.8 2 26.6 0 21.1 0C9.50004 0 0 9.5 0 21.1C0 22.9 0.200037 24.6 0.600037 26.3C0.700037 26.8 1.10004 27.1 1.60004 27.1H1.79999C2.29999 27 2.7 26.4 2.5 25.9C2.1 24.4 1.90002 22.8 1.90002 21.2C2.00002 10.5 10.5 1.9 21.1 1.9ZM21.1 42.2C23.3 42.2 25.5 41.9 27.6 41.2C28.1 41 28.4 40.5 28.2 39.9C28 39.4 27.5 39.1 26.9 39.3C25 39.9 23 40.2 21 40.2C14.5 40.2 8.5 37 5 31.5C4.7 31 4.10004 30.9 3.60004 31.2C3.10004 31.5 2.99999 32.1 3.29999 32.6C7.29999 38.6 13.9 42.2 21.1 42.2ZM33.1 38.2C33.3 38.2 33.5 38.1 33.7 38C39 34 42.2 27.7 42.2 21.1C42.2 17.1 41.1 13.2 39 9.9C38.7 9.4 38.1 9.3 37.6 9.6C37.1 9.9 37 10.5 37.3 11C39.2 14 40.2 17.6 40.2 21.2C40.2 27.3 37.4 32.9 32.5 36.5C32.1 36.8 32 37.5 32.3 37.9C32.5 38.1 32.8 38.2 33.1 38.2Z" fill="black"/>
</svg>
