<svg width="15" height="15" viewBox="0 0 15 15" fill="none" xmlns="http://www.w3.org/2000/svg">
<path d="M1 7.3C1 3.8 3.79999 1 7.29999 1C7.59999 1 7.79999 0.8 7.79999 0.5C7.79999 0.2 7.59999 0 7.29999 0C3.29999 0 0 3.3 0 7.3C0 9.2 0.800037 11.1 2.10004 12.5C2.20004 12.6 2.3 12.6 2.5 12.6C2.7 12.6 2.80002 12.6 2.90002 12.5C3.10002 12.3 3.10002 12 2.90002 11.8C1.60002 10.5 1 9 1 7.3ZM11.7 2.09999C11.5 2.29999 11.5 2.6 11.7 2.8C12.9 4 13.5 5.6 13.5 7.2C13.5 10.7 10.7 13.5 7.20001 13.5C6.90001 13.5 6.70001 13.7 6.70001 14C6.70001 14.3 6.90001 14.5 7.20001 14.5C11.2 14.5 14.5 11.2 14.5 7.2C14.5 5.3 13.7 3.4 12.4 2C12.2 1.9 11.9 1.89999 11.7 2.09999Z" fill="black"/>
</svg>
