<svg width="186" height="55" viewBox="0 0 186 55" fill="none" xmlns="http://www.w3.org/2000/svg">
<path d="M21.6 48.8C33.5 48.8 43.2 39.1 43.2 27.2C43.2 15.3 33.5 5.59998 21.6 5.59998C9.70001 5.59998 0 15.3 0 27.2C0 39.1 9.70001 48.8 21.6 48.8ZM21.6 7.69998C26.2 7.69998 30.4 9.3 33.7 12L23.7 24.1C23.5 24.3 23.6 24.6 23.8 24.8C23.9 24.9 24 24.9 24.1 24.9C24.2 24.9 24.4 24.8 24.5 24.7L34.5 12.6C38.6 16.2 41.2 21.4 41.2 27.3C41.2 38.1 32.4 46.9 21.6 46.9C17.1 46.9 13 45.4 9.7 42.8L19.7 30.7C19.9 30.5 19.8 30.2 19.6 30C19.4 29.8 19.1 29.9 18.9 30.1L8.90001 42.2C7.70001 41.2 6.7 40.1 5.8 38.8L5.90001 38.7L25.3 15.2C25.5 15 25.4 14.7 25.2 14.5C25 14.3 24.7 14.4 24.5 14.6L5.3 38C3.3 34.9 2.10001 31.3 2.10001 27.4C2.00001 16.4 10.8 7.69998 21.6 7.69998ZM66.3 27.2C66.3 29.5 66.7 31.7 67.5 33.9C67.6 34.1 67.8 34.2 68 34.2H68.2C68.5 34.1 68.6 33.8 68.5 33.6C67.7 31.6 67.4 29.4 67.4 27.3C67.4 17.3 75.5 9.19998 85.5 9.19998C91.9 9.19998 97.9 12.6 101.1 18.1C101.2 18.3 101.5 18.4 101.8 18.3C102 18.2 102.1 17.9 102 17.6C98.6 11.8 92.3 8.19998 85.5 8.19998C74.9 8.09998 66.3 16.7 66.3 27.2ZM85.5 45.4C79.8 45.4 74.6 42.8 71.1 38.3C70.9 38.1 70.6 38 70.4 38.2C70.2 38.4 70.1 38.7 70.3 38.9C74 43.6 79.5 46.3 85.5 46.3C96.1 46.3 104.6 37.7 104.6 27.2C104.6 25.9 104.5 24.6 104.2 23.3C104.1 23 103.9 22.9 103.6 22.9C103.3 23 103.2 23.2 103.2 23.5C103.4 24.7 103.6 25.9 103.6 27.2C103.6 37.2 95.5 45.4 85.5 45.4ZM185.1 1C185.1 0.4 184.7 0 184.1 0H141.1C140.5 0 140.1 0.4 140.1 1V54C140.1 54.6 140.5 55 141.1 55H184.1C184.7 55 185.1 54.6 185.1 54V1ZM184.1 53H142.1V2H184.1V53Z" fill="black"/>
</svg>
