<svg width="120" height="108" viewBox="0 0 120 108" fill="none" xmlns="http://www.w3.org/2000/svg">
<path d="M51.4 10.126C38.3 10.126 26.1 15.226 16.8 24.426C13.1 28.126 10 32.326 7.70001 36.926L6.59998 35.826C6.39998 35.626 6.09996 35.626 5.89996 35.826C5.69996 36.026 5.69996 36.326 5.89996 36.526L7 37.626C7.1 37.726 7.19999 37.726 7.29999 37.726C6.59999 39.226 5.99996 40.626 5.39996 42.226L4.59998 41.426C4.39998 41.226 4.09996 41.226 3.89996 41.426C3.69996 41.626 3.69996 41.926 3.89996 42.126L4.70001 42.926C4.80001 43.026 4.89998 43.026 5.09998 43.026H5.20001C3.50001 48.126 2.5 53.526 2.5 59.026C2.5 72.126 7.59999 84.326 16.8 93.626C26 102.926 38.3 107.926 51.4 107.926C62.5 107.926 73 104.226 81.6 97.426V97.726C81.7 98.026 81.7 98.326 81.6 98.626C81.5 98.926 81.3 99.126 81 99.326C80.7 99.426 80.6 99.726 80.7 100.026C80.8 100.226 81 100.326 81.2 100.326H81.4C81.9 100.126 82.3 99.626 82.5 99.126C82.7 98.526 82.7 97.926 82.4 97.426C82.3 97.326 82.2 97.226 82 97.126C83.3 96.026 84.6 94.926 85.8 93.726C95 84.526 100.1 72.226 100.1 59.126C100.1 46.026 95 33.826 85.8 24.526C76.6 15.226 64.5 10.126 51.4 10.126ZM85.3 92.926C76.3 101.926 64.2 106.926 51.4 106.926C38.6 106.926 26.6 101.926 17.5 92.926C8.5 83.926 3.5 71.826 3.5 59.026C3.5 46.226 8.5 34.226 17.5 25.126C23.4 19.226 30.6 15.026 38.4 12.826C31.7 14.926 25.3 18.726 20 24.026C2.9 41.126 2.10001 68.626 18.2 86.626C18.6 87.026 19.2 87.026 19.6 86.726C20 86.326 20 85.726 19.7 85.326C4.30001 68.126 4.99996 41.826 21.4 25.426C38.4 8.42601 66.1 8.42601 83.1 25.426C100.1 42.426 100.1 70.126 83.1 87.126C77.4 92.826 70.3 96.826 62.5 98.726C62 98.826 61.6 99.426 61.8 99.926C61.9 100.426 62.3 100.726 62.8 100.726H63C71.1 98.726 78.6 94.626 84.5 88.626C100.4 72.726 102.1 48.026 89.6 30.226C95.9 38.526 99.3 48.526 99.3 59.126C99.3 71.826 94.3 83.826 85.3 92.926ZM107.5 2.92601C107.6 2.92601 107.6 2.92601 107.5 2.92601C107.8 2.92601 108 2.72601 108.1 2.52601L108.4 0.626011C108.4 0.326011 108.3 0.126013 108 0.0260128C107.7 -0.0739872 107.5 0.126014 107.4 0.426014L107.1 2.32601C107.1 2.52601 107.3 2.82601 107.5 2.92601ZM118.6 2.82601C118.7 2.92601 118.8 2.92601 118.9 2.92601C119.1 2.92601 119.2 2.82601 119.3 2.72601C119.5 2.52601 119.4 2.22601 119.2 2.02601L116.9 0.526013C116.7 0.326013 116.4 0.426011 116.2 0.626011C116 0.826011 116.1 1.12601 116.3 1.32601L118.6 2.82601ZM91.2 9.62601C91 9.42601 90.7 9.42601 90.5 9.62601L89.4 10.726C89.2 10.926 89.2 11.226 89.4 11.426C89.5 11.526 89.6 11.526 89.8 11.526C90 11.526 90.1 11.526 90.2 11.426L91.3 10.326C91.4 10.126 91.4 9.82601 91.2 9.62601ZM107.5 12.426C107.6 12.526 107.7 12.526 107.9 12.526C108.1 12.526 108.2 12.526 108.3 12.426C108.5 12.226 108.5 11.926 108.3 11.726L107.9 11.326C107.7 11.126 107.4 11.126 107.2 11.326C107 11.526 107 11.826 107.2 12.026L107.5 12.426ZM101.4 2.82601C101.5 2.82601 101.7 2.82601 101.8 2.72601L102.9 1.62601C103.1 1.42601 103.1 1.12601 102.9 0.926014C102.7 0.726014 102.4 0.726014 102.2 0.926014L101.1 2.02601C100.9 2.22601 100.9 2.52601 101.1 2.72601C101.2 2.82601 101.3 2.82601 101.4 2.82601ZM93.1 18.226C93.2 18.326 93.3 18.326 93.5 18.326C93.7 18.326 93.8 18.326 93.9 18.226C94.1 18.026 94.1 17.726 93.9 17.526L93.5 17.126C93.3 16.926 93 16.926 92.8 17.126C92.6 17.326 92.6 17.626 92.8 17.826L93.1 18.226ZM102.6 66.926H103.4C103.7 66.926 103.9 66.726 103.9 66.426C103.9 66.126 103.7 65.926 103.4 65.926H102.6C102.3 65.926 102.1 66.126 102.1 66.426C102.1 66.726 102.3 66.926 102.6 66.926ZM100.2 45.826C100.4 46.626 100.5 47.426 101.1 47.626C101.2 47.626 101.3 47.726 101.4 47.726C101.6 47.726 101.7 47.726 101.9 47.526C102.1 47.326 102.2 47.026 102 46.826C101.9 46.626 101.6 46.526 101.4 46.626C101.3 46.426 101.2 45.926 101.2 45.626C101.2 45.426 101.1 45.126 101.1 44.926C101 44.626 100.8 44.526 100.5 44.526C100.2 44.626 100.1 44.826 100.1 45.126C100.1 45.326 100.1 45.526 100.2 45.826ZM98 36.626C98.4 36.526 98.5 36.526 98.7 36.826C98.8 36.926 98.9 37.026 99.1 37.026C99.2 37.026 99.3 37.026 99.4 36.926C99.6 36.726 99.7 36.426 99.5 36.226C98.9 35.426 98.3 35.626 97.9 35.626C97.5 35.726 97.4 35.726 97.2 35.426C97 35.226 96.7 35.126 96.5 35.326C96.3 35.526 96.2 35.826 96.4 36.026C97 36.826 97.6 36.726 98 36.626ZM70.4 12.226C70.5 12.326 70.6 12.326 70.8 12.326C71 12.326 71.1 12.326 71.2 12.226C71.4 12.026 71.4 11.726 71.2 11.526L69.7 10.026C69.5 9.82601 69.2 9.82601 69 10.026C68.8 10.226 68.8 10.526 69 10.726L70.4 12.226ZM58.6 9.32601C58.7 9.32601 58.9 9.32601 59 9.22601L59.4 8.82601C59.6 8.62601 59.6 8.32601 59.4 8.12601C59.2 7.92601 58.9 7.92601 58.7 8.12601L58.3 8.52601C58.1 8.72601 58.1 9.02601 58.3 9.22601C58.3 9.22601 58.5 9.32601 58.6 9.32601ZM44.9 7.82601C45 7.82601 45.2 7.82601 45.3 7.72601L45.7 7.32601C45.9 7.12601 45.9 6.82601 45.7 6.62601C45.5 6.42601 45.2 6.42601 45 6.62601L44.6 7.02601C44.4 7.22601 44.4 7.52601 44.6 7.72601C44.7 7.72601 44.8 7.82601 44.9 7.82601ZM15.7 21.826C15.8 21.826 16 21.826 16.1 21.726L16.5 21.326C16.7 21.126 16.7 20.826 16.5 20.626C16.3 20.426 16 20.426 15.8 20.626L15.4 21.026C15.2 21.226 15.2 21.526 15.4 21.726C15.5 21.826 15.6 21.826 15.7 21.826ZM9.29999 29.226C9.39999 29.326 9.50001 29.326 9.70001 29.326C9.90001 29.326 9.99998 29.326 10.1 29.226C10.3 29.026 10.3 28.726 10.1 28.526L9.29999 27.726C9.09999 27.526 8.79998 27.526 8.59998 27.726C8.39998 27.926 8.39998 28.226 8.59998 28.426L9.29999 29.226ZM1 51.326L0.599976 51.726C0.399976 51.926 0.399976 52.226 0.599976 52.426C0.699976 52.526 0.8 52.526 1 52.526C1.2 52.526 1.29996 52.526 1.39996 52.426L1.79999 52.026C1.99999 51.826 1.99999 51.526 1.79999 51.326C1.49999 51.126 1.2 51.126 1 51.326ZM1.29999 72.426H0.5C0.2 72.426 0 72.626 0 72.926C0 73.226 0.2 73.426 0.5 73.426H1.29999C1.59999 73.426 1.79999 73.226 1.79999 72.926C1.79999 72.626 1.59999 72.426 1.29999 72.426ZM11.2 89.126H10.4C10.1 89.126 9.89996 89.326 9.89996 89.626C9.89996 89.926 10.1 90.126 10.4 90.126H11.2C11.5 90.126 11.7 89.926 11.7 89.626C11.7 89.326 11.5 89.126 11.2 89.126ZM18.5 97.026C18.4 96.726 18.1 96.626 17.9 96.726C17.6 96.826 17.5 97.126 17.6 97.326L18 98.426C18.1 98.626 18.3 98.726 18.5 98.726H18.7C19 98.626 19.1 98.326 19 98.126L18.5 97.026ZM26.8 104.426L26.4 104.826C26.2 105.026 26.2 105.326 26.4 105.526C26.5 105.626 26.6 105.626 26.8 105.626C27 105.626 27.1 105.626 27.2 105.526L27.6 105.126C27.8 104.926 27.8 104.626 27.6 104.426C27.3 104.226 26.9 104.226 26.8 104.426ZM74.2 105.026L71.6 104.626C71.3 104.626 71.1 104.726 71 105.026C71 105.326 71.1 105.526 71.4 105.626L74 106.026H74.1C74.3 106.026 74.6 105.826 74.6 105.626C74.7 105.326 74.5 105.026 74.2 105.026ZM95 86.226L94.6 86.626C94.4 86.826 94.4 87.126 94.6 87.326C94.7 87.426 94.8 87.426 95 87.426C95.2 87.426 95.3 87.426 95.4 87.326L95.8 86.926C96 86.726 96 86.426 95.8 86.226C95.5 86.026 95.2 86.026 95 86.226ZM98.1 80.126L97.3 80.926C97.1 81.126 97.1 81.426 97.3 81.626C97.4 81.726 97.5 81.726 97.7 81.726C97.9 81.726 98 81.726 98.1 81.626L98.9 80.826C99.1 80.626 99.1 80.326 98.9 80.126C98.7 79.926 98.3 79.926 98.1 80.126Z" fill="black"/>
</svg>
