<svg width="42" height="42" viewBox="0 0 42 42" fill="none" xmlns="http://www.w3.org/2000/svg">
<path d="M35.55 3.94141L37.65 1.84141L37.25 6.2414C37.25 6.4414 37.35 6.6414 37.55 6.7414H37.75C37.85 6.7414 38.05 6.64143 38.15 6.64143L41.25 3.54142C41.45 3.34142 41.45 3.04141 41.25 2.84141C41.05 2.64141 40.75 2.64141 40.55 2.84141L38.45 4.94141L38.85 0.54142C38.85 0.34142 38.75 0.14142 38.55 0.0414201C38.35 -0.0585799 38.15 0.0414262 37.95 0.141426L34.85 3.2414C34.65 3.4414 34.65 3.74141 34.85 3.94141C35.05 4.14141 35.35 4.14141 35.55 3.94141ZM5.44999 36.0414C4.94999 35.5414 4.35001 35.4414 3.75001 35.7414C3.15001 36.0414 2.85001 36.6414 2.85001 37.2414L3.04999 39.7414C3.04999 40.0414 2.85001 40.2414 2.75001 40.2414C2.65001 40.2414 2.45 40.3414 2.15 40.1414L0.850012 38.8414C0.650012 38.6414 0.35 38.6414 0.15 38.8414C-0.05 39.0414 -0.05 39.3414 0.15 39.5414L1.44999 40.8414C1.74999 41.1414 2.14999 41.2414 2.54999 41.2414C2.74999 41.2414 2.95 41.2414 3.15 41.1414C3.75 40.8414 4.04999 40.2414 4.04999 39.6414L3.85001 37.1414C3.85001 36.8414 4.05 36.6414 4.15 36.6414C4.25 36.6414 4.45001 36.5414 4.75001 36.7414L6.04999 38.0414C6.24999 38.2414 6.55001 38.2414 6.75001 38.0414C6.95001 37.8414 6.95001 37.5414 6.75001 37.3414L5.44999 36.0414Z" fill="black"/>
</svg>
