<svg width="185" height="119" viewBox="0 0 185 119" fill="none" xmlns="http://www.w3.org/2000/svg">
<path d="M184.7 36.9L173.3 21.4C173.2 21.3 172.9 21.2 172.9 21.1V15.3C172.9 13.9 171.8 13 170.4 13H167.9V6.2C167.9 5.6 167.5 5 167 5H154.3C153.7 5 152.9 5.6 152.9 6.2V13H153.2L148.4 0.900001C148.2 0.500001 147.9 0 147.5 0H69.9C69.5 0 69 0.3 68.8 0.6L61.8 12V6.8C61.8 6.2 61.7 6.1 61.2 6.1H55.8V4.3C55.8 3.7 55.6 3.1 55.1 3.1H47.5C46.9 3.1 46.9 3.8 46.9 4.3V6.1H41.4C40.8 6.1 39.9 6.3 39.9 6.8V13.1H33.9L35.8 11C35.8 11 35.8 10.8 35.9 10.8C35.9 10.7 36 10.6 36 10.6C36 10.5 35.9 10.4 36 10.3L35.9 10.2V3.4C35.9 2.4 35.2 1.2 34.1 1.2H9.59998C8.49998 1.2 7.90002 2.4 7.90002 3.4V10.2L7.79999 10.3V10.5C7.79999 10.6 7.90002 10.6 7.90002 10.7C7.90002 10.7 7.9 10.9 8 11L9.90002 13.1H2.40002C1.00002 13.1 0 13.9 0 15.4V115.7C0 117.1 1.00002 118.1 2.40002 118.1H170.5C171.9 118.1 173 117.1 173 115.7V33.4L178.9 41.3C179.1 41.5 179.3 41.7 179.6 41.7H179.8C180 41.7 180.2 41.6 180.4 41.5L184.8 38.3C184.9 37.9 185 37.3 184.7 36.9ZM154.8 7H165.8V13H163.9L163.8 12.5V9C163.8 8.7 163.6 8.5 163.3 8.5C163 8.5 162.8 8.7 162.8 9V12.5C162.8 12.6 163 13 163 13H161L160.8 12.5V9C160.8 8.7 160.6 8.5 160.3 8.5C160 8.5 159.8 8.7 159.8 9V12.5C159.8 12.6 160 13 160.1 13H158.1L157.9 12.5V9C157.9 8.7 157.7 8.5 157.4 8.5C157.1 8.5 156.9 8.7 156.9 9V12.5C156.9 12.6 157.2 13 157.3 13H154.9V7H154.8ZM48.8 5H53.8V6H48.8V5ZM41.8 8H59.8V13H58.8V10.2C58.8 9.9 58.6 9.7 58.3 9.7C58 9.7 57.8 9.9 57.8 10.2V13H55.8V10.2C55.8 9.9 55.6 9.7 55.3 9.7C55 9.7 54.8 9.9 54.8 10.2V13H52.8V10.2C52.8 9.9 52.6 9.7 52.3 9.7C52 9.7 51.8 9.9 51.8 10.2V13H50.8V10.2C50.8 9.9 50.6 9.7 50.3 9.7C50 9.7 49.8 9.9 49.8 10.2V13H47.8V10.2C47.8 9.9 47.6 9.7 47.3 9.7C47 9.7 46.8 9.9 46.8 10.2V13H44.8V10.2C44.8 9.9 44.6 9.7 44.3 9.7C44 9.7 43.8 9.9 43.8 10.2V13H41.8V8ZM33.8 3.5V8.1H31.8V5.6C31.8 5.3 31.6 5.1 31.3 5.1C31 5.1 30.8 5.3 30.8 5.6V8.1H28.8V5.6C28.8 5.3 28.6 5.1 28.3 5.1C28 5.1 27.8 5.3 27.8 5.6V8.1H26.8V5.6C26.8 5.3 26.6 5.1 26.3 5.1C26 5.1 25.8 5.3 25.8 5.6V8.1H23.8V5.6C23.8 5.3 23.6 5.1 23.3 5.1C23 5.1 22.8 5.3 22.8 5.6V8.1H20.8V5.6C20.8 5.3 20.6 5.1 20.3 5.1C20 5.1 19.8 5.3 19.8 5.6V8.1H17.8V5.6C17.8 5.3 17.6 5.1 17.3 5.1C17 5.1 16.8 5.3 16.8 5.6V8.1H15.8V5.6C15.8 5.3 15.6 5.1 15.3 5.1C15 5.1 14.8 5.3 14.8 5.6V8.1H12.8V5.6C12.8 5.3 12.6 5.1 12.3 5.1C12 5.1 11.8 5.3 11.8 5.6V8.1H9.79999V3.5H33.8ZM9.79999 9.7V9.1H33.8V9.7L31.1 13.1H12.6L9.79999 9.7ZM2.20001 15H62.3C62.7 15 63 14.6 63.2 14.3L70.4 2H146.7L151.5 14.1C151.7 14.5 152 15 152.4 15H170.3C170.6 15 170.8 15 170.8 15.3V36H119.1C110.9 28 99.4 22.5 86.8 22.5C74.2 22.5 62.8 28 54.5 36H41.7C41.5 36 41.3 36.2 41.1 36.3C39 32.4 34.8 29.7 30 29.7C25.3 29.7 21.2 32 19 36H1.59998V15.3C1.79998 15 1.90001 15 2.20001 15ZM131.3 89.1C134.8 89.1 137.7 92 137.7 95.5C137.7 99 134.8 101.9 131.3 101.9C127.8 101.9 124.9 99 124.9 95.5C124.9 92 127.8 89.1 131.3 89.1ZM86.9 24.6C99 24.6 110 29.6 117.9 37.7L118.2 38C125.7 45.8 130.3 56.4 130.3 68C130.3 91.9 110.9 111.3 87 111.3C63.1 111.3 43.7 91.9 43.7 68C43.5 44.1 63 24.6 86.9 24.6ZM30.1 31.8C36 31.8 40.7 36.6 40.7 42.4C40.7 48.2 35.9 53 30.1 53C24.3 53 19.5 48.2 19.5 42.4C19.5 36.6 24.2 31.8 30.1 31.8ZM170.3 116H44.9C45 116 44.8 116 44.8 115.9V113.6C44.8 113.3 44.6 113.1 44.3 113.1C44 113.1 43.8 113.3 43.8 113.6V115.9C43.8 116 44.1 116 44.1 116H2.20001C1.90001 116 1.79999 115.9 1.79999 115.6V38H18.2C17.7 39 17.4 40.8 17.4 42.3C17.4 49.3 23.1 55 30 55C37 55 42.6 49.3 42.6 42.3C42.6 40.8 42.3 39 41.8 38H52.6C45.6 46 41.4 56.5 41.4 67.9C41.4 92.9 61.7 113.3 86.7 113.3C101.4 113.3 114.6 106.2 122.8 95.3V95.5C122.8 100.1 126.6 103.9 131.2 103.9C135.8 103.9 139.6 100.2 139.6 95.5C139.6 90.8 135.8 87.1 131.2 87.1C129.8 87.1 128.5 87.5 127.3 88.1C130.3 82 132 75.1 132 67.9C132 56.5 127.8 46 120.8 38H170.6V115.6C170.8 115.9 170.6 116 170.3 116ZM179.7 39.3L173.1 30.4C173 30.3 172.7 30.2 172.7 30.1V24.2L182.3 37.2L179.7 39.3Z" fill="black"/>
</svg>
