<svg width="54" height="55" viewBox="0 0 54 55" fill="none" xmlns="http://www.w3.org/2000/svg">
<path d="M49.9 27.3C49.9 27.6 50.1 27.8 50.4 27.8H53.5C53.8 27.8 54 27.6 54 27.3C54 27 53.8 26.8 53.5 26.8H50.4C50.1 26.8 49.9 27.1 49.9 27.3ZM0.5 27.8H3.59999C3.89999 27.8 4.09999 27.6 4.09999 27.3C4.09999 27 3.89999 26.8 3.59999 26.8H0.5C0.2 26.8 0 27 0 27.3C0 27.6 0.2 27.8 0.5 27.8ZM26.7 50C26.4 50 26.2 50.2 26.2 50.5V53.6C26.2 53.9 26.4 54.1 26.7 54.1C27 54.1 27.2 53.9 27.2 53.6V50.5C27.2 50.2 27 50 26.7 50ZM26.7 4.1C27 4.1 27.2 3.9 27.2 3.6V0.5C27.2 0.2 27 0 26.7 0C26.4 0 26.2 0.2 26.2 0.5V3.6C26.2 3.9 26.4 4.1 26.7 4.1ZM39.1 47C39 46.8 38.7 46.7 38.4 46.8C38.2 46.9 38.1 47.2 38.2 47.5L39.8 50.2C39.9 50.4 40.1 50.4 40.2 50.4C40.3 50.4 40.4 50.4 40.4 50.3C40.6 50.2 40.7 49.9 40.6 49.6L39.1 47ZM14.9 7.1C15 7.3 15.2 7.3 15.3 7.3C15.4 7.3 15.5 7.3 15.5 7.2C15.7 7.1 15.8 6.8 15.7 6.5L14.1 3.8C14 3.6 13.7 3.5 13.4 3.6C13.2 3.7 13.1 4 13.2 4.3L14.9 7.1ZM6.59999 38.2L3.79999 39.8C3.59999 39.9 3.49999 40.2 3.59999 40.5C3.69999 40.7 3.9 40.7 4 40.7C4.1 40.7 4.2 40.7 4.2 40.6L7 39C7.2 38.9 7.3 38.6 7.2 38.3C7.2 38.2 6.79999 38.1 6.59999 38.2ZM47.2 15.9C47.3 15.9 47.4 15.9 47.4 15.8L50.2 14.2C50.4 14.1 50.5 13.8 50.4 13.5C50.3 13.3 50 13.2 49.7 13.3L46.9 14.9C46.7 15 46.6 15.3 46.7 15.6C46.8 15.8 47 15.9 47.2 15.9ZM50.2 39.9L47.4 38.3C47.2 38.2 46.9 38.2 46.7 38.5C46.6 38.7 46.6 39 46.9 39.2L49.7 40.8C49.8 40.8 49.9 40.9 49.9 40.9C50.1 40.9 50.2 40.8 50.3 40.7C50.5 40.3 50.5 40 50.2 39.9ZM3.79999 14.2L6.59999 15.8C6.69999 15.8 6.79999 15.9 6.79999 15.9C6.99999 15.9 7.1 15.8 7.2 15.7C7.3 15.5 7.3 15.2 7 15L4.2 13.4C4 13.3 3.7 13.3 3.5 13.6C3.3 13.9 3.59999 14.1 3.79999 14.2ZM15.6 46.8C15.4 46.7 15.1 46.7 14.9 47L13.3 49.8C13.2 50 13.2 50.3 13.5 50.5C13.6 50.5 13.7 50.6 13.7 50.6C13.9 50.6 14 50.5 14.1 50.4L15.7 47.6C15.9 47.2 15.8 46.9 15.6 46.8ZM38.4 7.3C38.5 7.3 38.6 7.4 38.6 7.4C38.8 7.4 38.9 7.3 39 7.2L40.6 4.4C40.7 4.2 40.7 3.9 40.4 3.7C40.2 3.6 39.9 3.6 39.7 3.9L38.1 6.7C38.1 6.8 38.2 7.1 38.4 7.3ZM25.5 26.4C25.5 26.4 25.6 26.4 25.6 26.5C25.5 26.7 25.5 27 25.5 27.2L26.9 38.4C27 39.5 27.3 40.6 27.8 41.6L28.7 43.5C28.8 43.7 29 43.8 29.2 43.8H29.3C29.5 43.8 29.7 43.6 29.7 43.4L30 41.3C30.2 40.2 30.2 38.9 30.1 37.7L28.9 27.7H42.1C44.1 27.7 46.1 27.7 48 27.2C48.2 27.1 48.4 27.1 48.4 26.8C48.4 26.6 48.2 26.4 48 26.4C46.1 25.9 44.1 25.7 42.1 25.7H28.1C27.8 25.4 27.4 25.3 26.9 25.4C26.6 25.4 26.4 25.5 26.2 25.7C26.2 25.7 26.2 25.6 26.1 25.6L8 10.8C7.8 10.6 7.49999 10.7 7.29999 10.9C7.09999 11.1 7.19999 11.4 7.39999 11.6L25.5 26.4ZM42 26.8C43.1 26.8 44.2 26.6 45.3 26.8C44.2 27 43.1 26.8 42 26.8Z" fill="black"/>
</svg>
