<svg width="354" height="69" viewBox="0 0 354 69" fill="none" xmlns="http://www.w3.org/2000/svg">
  <!-- Watch Strap & Case -->
  <path d="M30 47.3V47C30 46.9 29.8 46.7 29.8 46.7H35V48.2C35 49.5 36 50.7 37.3 50.7H44C45.3 50.7 46 49.5 46 48.2V46.8H103V48.1C103 49.4 104.2 50.6 105.5 50.6H112.2C113.5 50.6 115 49.4 115 48.1V46.6H143.5C144 49.6 146.6 52.6 149.9 52.6H153.2C158.5 59.6 166.7 64.7 176.1 65.8C176.5 67.5 178 68.8 179.8 68.8C181.6 68.8 183.2 67.4 183.5 65.7C193 64.6 201.2 59.7 206.5 52.3C206.7 52.4 206.8 52.6 207 52.6H210.4C213.2 52.6 215.6 50.6 216.5 47.6H258.2L337.4 47.7C339.6 47.7 341.8 47.1 343.7 45.9C348.2 42.9 353.7 38.4 353.7 33.3C353.7 28.2 348.3 23.6 343.7 20.7C341.8 19.5 339.7 18.9 337.4 18.9L216.9 19C216.4 15.9 213.8 13.6 210.5 13.6H206.7C206.6 13.6 206.5 13.5 206.4 13.5C200.4 5.3 190.7 0 179.7 0C168.8 0 159.1 5.6 153.1 13.6H149.8C147 13.6 144.6 15.6 143.7 17.6H114.9V16.5C114.9 15.2 113.5 13.7 112.1 13.7H105.4C104.1 13.7 102.9 15.1 102.9 16.5V17.8H45.9V16.5C45.9 15.2 45.3 13.7 43.9 13.7H37.2C35.9 13.7 34.9 15.1 34.9 16.5V17.7H29.9V17.5C29.9 14.2 27.1 11.8 23.8 11.8H6.4C3.1 11.8 0 14.2 0 17.5V47.3C0 50.6 3.1 52.8 6.4 52.8H23.9C27.2 52.7 30 50.5 30 47.3ZM179.8 67.7C178.6 67.7 177.5 66.9 177.1 65.8C178 65.9 178.9 65.9 179.8 65.9C180.7 65.9 181.6 65.9 182.5 65.8C182.1 66.9 181.1 67.7 179.8 67.7ZM342.6 22.5C346 24.7 351.7 29.1 351.7 33.5C351.7 36.3 349.4 38.9 346.9 41.1C346.8 41 346.7 40.7 346.5 40.7H339.4C339.1 40.7 338.9 40.9 338.9 41.2C338.9 41.5 339.1 41.7 339.4 41.7H346C344.8 42.7 343.7 43.6 342.7 44.3C341.2 45.3 339.4 45.9 337.5 45.9L217.1 46V25.7H219.8C220.1 25.7 220.3 25.5 220.3 25.2C220.3 24.9 220.1 24.7 219.8 24.7H217.1V21H337.5C339.2 21 341 21.5 342.6 22.5ZM210.6 15.7C213.1 15.7 215 17.5 215 19.9V45.8C215 48.3 213 50.6 210.6 50.6H207.8C211 45.6 212.8 39.5 212.8 33.1C212.8 26.7 211 20.6 207.8 15.6H210.6V15.7ZM179.8 2C196.9 2 210.8 15.9 210.8 33C210.8 50.1 196.9 64 179.8 64C162.7 64 148.8 50.1 148.8 33C148.8 15.9 162.7 2 179.8 2ZM149.8 15.7H151.8C148.6 20.7 146.8 26.8 146.8 33.2C146.8 39.6 148.6 45.7 151.8 50.7H149.8C147.3 50.7 144.9 48.3 144.9 45.9V20C145 17.5 147.4 15.7 149.8 15.7ZM143 19.7V39.7H140.7C140.4 39.7 140.2 39.9 140.2 40.2C140.2 40.5 140.4 40.7 140.7 40.7H143V44.7H115V19.7H143ZM113 48.3C113 48.5 112.8 48.7 112.6 48.7H105.5C105.3 48.7 105.1 48.5 105.1 48.3V16.2C105.1 16 105.3 15.8 105.5 15.8H112.6C112.8 15.8 113 16 113 16.2V48.3ZM103 19.9V27.8H98.9C98.6 27.8 98.4 28 98.4 28.3C98.4 28.6 98.6 28.8 98.9 28.8H103V44.9H46V19.9H103ZM45 48.3C45 48.5 44.8 48.7 44.6 48.7H37.5C37.3 48.7 37.1 48.5 37.1 48.3V16.2C37.1 16 37.3 15.8 37.5 15.8H44.6C44.8 15.8 45 16 45 16.2V48.3ZM35 44.7H24.2C22.3 44.7 21 43.3 21 41.5V35.9C21 35.8 20.8 35.8 20.8 35.8H28V38.4C28 39 28.4 39.4 29 39.4C29.6 39.4 30 39 30 38.4V26.4C30 25.8 29.6 25.4 29 25.4C28.4 25.4 28 25.8 28 26.4V28.7H21V23.2C21 21.4 22.4 19.7 24.2 19.7H35V44.7ZM19 23.2V28.7H6V17.9C6 17.2 6.5 16.8 7.2 16.8H23.1C23.8 16.8 24.4 16.8 24.4 17.8H24.2C21.2 17.7 19 20.3 19 23.2ZM5.6 30.7H28V33.7H5.6C5.2 33.7 5 33.1 5 32.7V31.9C5 31.6 5.2 30.7 5.6 30.7ZM6 35.7H18.9C18.9 35.7 19 35.7 19 35.8V41.5C19 44.5 21.3 46.7 24.2 46.7H24.4C24.4 47.7 23.8 47.7 23.1 47.7H7.2C6.5 47.7 6 47.6 6 46.8V35.7ZM2 47.3V17.5C2 15.3 4.2 13.8 6.4 13.8H23.9C26.1 13.8 28 15.4 28 17.5V17.8H25.4C25.4 16.8 24.3 15.8 23.1 15.8H7.2C5.9 15.8 5 16.6 5 17.9V29.4C4 29.7 3 30.8 3 32V32.8C3 34.1 4 35.1 5 35.4V46.9C5 48.2 5.9 48.8 7.2 48.8H23.1C24.4 48.8 25.4 47.8 25.4 46.8H27.8C27.8 46.8 27.9 47 27.9 47.1V47.4C27.9 49.6 26 50.9 23.8 50.9H6.4C4.2 50.7 2 49.4 2 47.3Z" fill="black"/>
  
  <!-- Watch Dial Markings & Hands -->
  <path d="M21.6 48.8C33.5 48.8 43.2 39.1 43.2 27.2C43.2 15.3 33.5 5.59998 21.6 5.59998C9.70001 5.59998 0 15.3 0 27.2C0 39.1 9.70001 48.8 21.6 48.8ZM21.6 7.69998C26.2 7.69998 30.4 9.3 33.7 12L23.7 24.1C23.5 24.3 23.6 24.6 23.8 24.8C23.9 24.9 24 24.9 24.1 24.9C24.2 24.9 24.4 24.8 24.5 24.7L34.5 12.6C38.6 16.2 41.2 21.4 41.2 27.3C41.2 38.1 32.4 46.9 21.6 46.9C17.1 46.9 13 45.4 9.7 42.8L19.7 30.7C19.9 30.5 19.8 30.2 19.6 30C19.4 29.8 19.1 29.9 18.9 30.1L8.90001 42.2C7.70001 41.2 6.7 40.1 5.8 38.8L5.90001 38.7L25.3 15.2C25.5 15 25.4 14.7 25.2 14.5C25 14.3 24.7 14.4 24.5 14.6L5.3 38C3.3 34.9 2.10001 31.3 2.10001 27.4C2.00001 16.4 10.8 7.69998 21.6 7.69998ZM66.3 27.2C66.3 29.5 66.7 31.7 67.5 33.9C67.6 34.1 67.8 34.2 68 34.2H68.2C68.5 34.1 68.6 33.8 68.5 33.6C67.7 31.6 67.4 29.4 67.4 27.3C67.4 17.3 75.5 9.19998 85.5 9.19998C91.9 9.19998 97.9 12.6 101.1 18.1C101.2 18.3 101.5 18.4 101.8 18.3C102 18.2 102.1 17.9 102 17.6C98.6 11.8 92.3 8.19998 85.5 8.19998C74.9 8.09998 66.3 16.7 66.3 27.2ZM85.5 45.4C79.8 45.4 74.6 42.8 71.1 38.3C70.9 38.1 70.6 38 70.4 38.2C70.2 38.4 70.1 38.7 70.3 38.9C74 43.6 79.5 46.3 85.5 46.3C96.1 46.3 104.6 37.7 104.6 27.2C104.6 25.9 104.5 24.6 104.2 23.3C104.1 23 103.9 22.9 103.6 22.9C103.3 23 103.2 23.2 103.2 23.5C103.4 24.7 103.6 25.9 103.6 27.2C103.6 37.2 95.5 45.4 85.5 45.4ZM185.1 1C185.1 0.4 184.7 0 184.1 0H141.1C140.5 0 140.1 0.4 140.1 1V54C140.1 54.6 140.5 55 141.1 55H184.1C184.7 55 185.1 54.6 185.1 54V1ZM184.1 53H142.1V2H184.1V53Z" fill="black" transform="translate(158.2, 5.8)"/>
  
  <!-- Watch Dial Rings & Stitching -->
  <path d="M50.7 25.9C50.8 25.9 50.9 26 51 26C51.4 26 51.8 25.7 51.9 25.3C52.1 24.8 51.8 24.2 51.3 24C45.6 22 40 16.6 38.9 15.5L39.9 14.5C40.7 13.7 40.9 12.6 40.5 11.6C40.1 10.5 39.1 10 37.9 10H20.6C9.20004 10 0 19.1 0 30.5C0 41.9 9.30004 51.1 20.6 51.1C31.9 51.1 41.2 41.8 41.2 30.4C41.2 25.6 39.5 21.1 36.7 17.6L37.5 16.8C38.8 18.2 44.5 23.8 50.7 25.9ZM20.6 49.1C10.3 49.1 2 40.7 2 30.5C2 20.2 10.4 11.9 20.6 11.9C30.9 11.9 39.2 20.3 39.2 30.5C39.3 40.7 30.9 49.1 20.6 49.1ZM29.4 12H37.9C38.4 12 38.6 12.3 38.6 12.4C38.6 12.5 38.8 12.9 38.4 13.2L35.4 16.3C33.8 14.5 31.7 13 29.4 12ZM97 0C85.6 0 76.4 9.30001 76.4 20.6C76.4 32 85.7 41.2 97.1 41.2C101.9 41.2 106.4 39.5 109.9 36.7L110.7 37.5C109.4 38.7 103.9 44.5 101.7 50.6C101.5 51.1 101.8 51.7 102.3 51.9C102.4 51.9 102.5 52 102.6 52C103 52 103.4 51.7 103.5 51.3C105.5 45.6 110.9 40 112 38.9L113 39.9C113.5 40.4 114.2 40.7 114.9 40.7C115.3 40.7 115.5 40.6 115.9 40.5C117 40.1 117.5 39.1 117.5 37.9V20.6C117.5 9.20001 108.3 0 97 0ZM78.4 20.6C78.4 10.3 86.8 2 97 2C107.3 2 115.6 10.4 115.6 20.6C115.6 30.9 107.2 39.2 97 39.2C86.8 39.2 78.4 30.9 78.4 20.6ZM115.5 38C115.5 38.5 115.2 38.7 115.1 38.7C115 38.7 114.6 38.9 114.3 38.5L111.2 35.5C113 33.8 114.5 31.7 115.5 29.4V38Z" fill="black" transform="translate(159.2, 2.5)"/>
</svg>
